<?xml version="1.0" encoding="UTF-8" standalone="no"?>
<!-- Created with Inkscape (http://www.inkscape.org/) -->

<svg
   xmlns:dc="http://purl.org/dc/elements/1.1/"
   xmlns:cc="http://creativecommons.org/ns#"
   xmlns:rdf="http://www.w3.org/1999/02/22-rdf-syntax-ns#"
   xmlns:svg="http://www.w3.org/2000/svg"
   xmlns="http://www.w3.org/2000/svg"
   xmlns:sodipodi="http://sodipodi.sourceforge.net/DTD/sodipodi-0.dtd"
   xmlns:inkscape="http://www.inkscape.org/namespaces/inkscape"
   width="64"
   height="64"
   viewBox="0 0 16.933333 16.933334"
   version="1.1"
   id="svg8"
   inkscape:version="0.92.3 (2405546, 2018-03-11)"
   sodipodi:docname="gps_ok.svg">
  <defs
     id="defs2" />
  <sodipodi:namedview
     id="base"
     pagecolor="#ffffff"
     bordercolor="#666666"
     borderopacity="1.0"
     inkscape:pageopacity="0.0"
     inkscape:pageshadow="2"
     inkscape:zoom="5.7167333"
     inkscape:cx="-8.0336497"
     inkscape:cy="17.163158"
     inkscape:document-units="mm"
     inkscape:current-layer="layer1"
     showgrid="false"
     units="px"
     inkscape:window-width="1611"
     inkscape:window-height="982"
     inkscape:window-x="69"
     inkscape:window-y="32"
     inkscape:window-maximized="1" />
  <metadata
     id="metadata5">
    <rdf:RDF>
      <cc:Work
         rdf:about="">
        <dc:format>image/svg+xml</dc:format>
        <dc:type
           rdf:resource="http://purl.org/dc/dcmitype/StillImage" />
        <dc:title />
      </cc:Work>
    </rdf:RDF>
  </metadata>
  <g
     inkscape:label="Calque 1"
     inkscape:groupmode="layer"
     id="layer1"
     transform="translate(0,-280.06665)">
    <path
       style="fill:#00d700;fill-opacity:1;stroke:#000000;stroke-width:0.38706934;stroke-miterlimit:4;stroke-dasharray:none;stroke-opacity:1"
       d="m 11.619001,293.87807 -2.8478753,-2.84817 0.4241152,-0.42502 0.4241146,-0.42501 -0.1759685,-0.17379 -0.1759693,-0.1738 -0.3446862,0.33968 c -0.5042422,0.49692 -0.6114503,0.49924 -1.1085267,0.024 l -0.2961212,-0.2831 -0.4057776,0.40669 -0.4057777,0.4067 0.1773637,0.17738 c 0.1123133,0.11232 0.1706504,0.19487 0.1590603,0.22507 -0.030693,0.0799 -0.2714918,0.21611 -0.4466301,0.25246 -0.4444559,0.0922 -0.8836076,-0.20105 -0.9773929,-0.65284 -0.055216,-0.26598 0.027035,-0.55484 0.2054532,-0.72154 l 0.084117,-0.0785 0.1825503,0.18255 0.1825506,0.18257 0.4063731,-0.40551 0.4063728,-0.40549 -0.2839895,-0.30008 c -0.4717536,-0.4985 -0.4695948,-0.59613 0.024386,-1.10271 l 0.3396931,-0.34836 -0.1732332,-0.17543 -0.1732332,-0.17542 -0.4250123,0.42416 -0.4250124,0.42417 -2.848116,-2.84827 -2.84811601,-2.84829 1.09629211,-1.09601 1.0962918,-1.09598 2.8478761,2.84815 2.8478751,2.84816 -0.424115,0.42502 -0.4241146,0.42501 0.1765729,0.1744 0.1765724,0.17438 1.0478691,-1.04408 c 1.1255009,-1.12142 1.1325803,-1.12681 1.3757863,-1.04917 0.166836,0.0532 1.650884,1.51972 1.742879,1.72222 0.1244,0.27381 0.137432,0.25574 -1.024159,1.4207 l -1.0448924,1.04793 0.1743796,0.17657 0.1743808,0.17659 0.425011,-0.42416 0.425013,-0.42417 2.848116,2.84827 2.848116,2.84828 -1.096293,1.096 -1.096291,1.09601 z m -5.9449238,1.9331 c -0.8122778,-0.12681 -1.5251893,-0.40155 -2.1843995,-0.84184 -1.8586484,-1.24143 -2.73135004,-3.50242 -2.1950548,-5.68697 0.2108524,-0.85886 0.6422575,-1.65571 1.2633097,-2.33343 l 0.1759724,-0.19203 0.1190048,0.11747 0.1190053,0.11745 -0.2223905,0.2506 c -0.2752323,0.31014 -0.4422858,0.53671 -0.6095192,0.82668 -0.7924603,1.37404 -0.8834674,3.04699 -0.2453239,4.5097 0.5562065,1.27488 1.7035542,2.30175 3.0365249,2.71766 1.6804808,0.52432 3.4638908,0.14538 4.7948503,-1.01885 l 0.2833823,-0.24788 0.116651,0.11752 0.116652,0.11752 -0.192017,0.1755 c -1.0278696,0.93953 -2.2911009,1.42957 -3.6561106,1.4183 -0.2421372,-0.002 -0.5663789,-0.0233 -0.7205372,-0.0474 z m 0.3282922,-1.40866 c -0.044003,-0.008 -0.202418,-0.0378 -0.3520312,-0.0658 -0.8627302,-0.16177 -1.6867048,-0.67399 -2.256558,-1.40282 -0.9349821,-1.19586 -1.0770904,-2.83467 -0.3621668,-4.1766 0.1572946,-0.29525 0.475823,-0.73512 0.6478455,-0.89463 l 0.08466,-0.0784 0.1170518,0.11704 0.1170513,0.11707 -0.1587056,0.16947 c -1.514701,1.61752 -1.1126338,4.28876 0.8156378,5.41896 1.3068496,0.76596 3.0310118,0.58589 4.1416852,-0.43253 l 0.1862394,-0.17077 0.1177874,0.11934 0.1177866,0.11935 -0.1920176,0.17473 c -0.5015333,0.45655 -1.1261839,0.77597 -1.8081592,0.92462 -0.2318843,0.0505 -1.0517822,0.0917 -1.2161066,0.0611 z m 0.048005,-1.64506 c -0.992659,-0.18133 -1.751627,-1.02204 -1.8279468,-2.02481 -0.04605,-0.60507 0.152416,-1.17974 0.5772344,-1.67141 l 0.1106115,-0.12801 0.1175651,0.1161 0.1175646,0.1161 -0.1480092,0.18174 c -0.3011627,0.36977 -0.4351515,0.74489 -0.4351515,1.21828 0,0.52818 0.178296,0.9648 0.5428608,1.32938 0.3637702,0.3638 0.8052935,0.54473 1.3293047,0.54473 0.4687504,0 0.849169,-0.13639 1.2176325,-0.43653 l 0.1811163,-0.14752 0.1086967,0.10536 c 0.059782,0.0579 0.1086966,0.11569 0.1086966,0.12832 0,0.0384 -0.3888098,0.33379 -0.5760504,0.43758 -0.2751315,0.15249 -0.5827922,0.23309 -0.9440835,0.24731 -0.1760154,0.007 -0.3920344,-5.4e-4 -0.4800418,-0.0166 z"
       id="path837"
       inkscape:connector-curvature="0" />
  </g>
</svg>
