<svg height="512pt" viewBox="0 -60 512 512" width="512pt" xmlns="http://www.w3.org/2000/svg"><path d="m512 271h-182v-15c0-74.4375-60.5625-135-135-135s-135 60.5625-135 135v15h-60v-15c0-68.378906 26.628906-132.667969 74.980469-181.019531 48.351562-48.351563 112.640625-74.980469 181.019531-74.980469s132.667969 26.628906 181.019531 74.980469c48.351563 48.351562 74.980469 112.640625 74.980469 181.019531zm0 0" fill="#ffce2e"/><path d="m437.019531 74.980469c-48.351562-48.351563-112.640625-74.980469-181.019531-74.980469s-132.667969 26.628906-181.019531 74.980469c-3.554688 3.550781-6.972657 7.203125-10.292969 10.921875l56.875 56.875c21.152344-13.765625 46.375-21.777344 73.4375-21.777344 61.949219 0 114.28125 41.949219 130.097656 98.933594l186.65625 25.128906c-2.683594-64.273438-28.96875-124.316406-74.734375-170.082031zm0 0" fill="#f90"/><path d="m330 256v15h182v-15c0-68.378906-26.628906-132.667969-74.980469-181.019531-48.351562-48.351563-112.640625-74.980469-181.019531-74.980469v135.589844c43.871094 22.316406 74 67.910156 74 120.410156zm0 0" fill="#ff4f18"/><path d="m448.1875 75-230.253906 210.078125c-8.425782 7.6875-8.730469 20.851563-.664063 28.914063l56.230469 56.230468c8.074219 8.078125 21.265625 7.761719 28.945312-.695312l209.554688-230.730469v-63.796875zm0 0" fill="#b7e4f8"/><path d="m273.496094 370.222656c8.078125 8.078125 21.269531 7.761719 28.949218-.695312l209.554688-230.730469v-63.796875l-266.640625 267.085938zm0 0" fill="#6fc8f1"/><path d="m255.996094 391.507812c-16.027344 0-31.097656-6.242187-42.429688-17.574218-23.390625-23.394532-23.390625-61.460938 0-84.855469 11.332032-11.332031 26.402344-17.574219 42.429688-17.574219 16.023437 0 31.09375 6.242188 42.425781 17.574219 23.394531 23.394531 23.394531 61.457031 0 84.855469-11.332031 11.332031-26.402344 17.574218-42.425781 17.574218zm0 0" fill="#388cb3"/><path d="m298.421875 289.078125-84.855469 84.855469c11.332032 11.332031 26.402344 17.574218 42.429688 17.574218 16.023437 0 31.09375-6.242187 42.425781-17.574218 23.390625-23.394532 23.390625-61.460938 0-84.855469zm0 0" fill="#265d77"/></svg>