<?xml version="1.0" encoding="UTF-8" standalone="no"?>
<svg
   xmlns:dc="http://purl.org/dc/elements/1.1/"
   xmlns:cc="http://creativecommons.org/ns#"
   xmlns:rdf="http://www.w3.org/1999/02/22-rdf-syntax-ns#"
   xmlns:svg="http://www.w3.org/2000/svg"
   xmlns="http://www.w3.org/2000/svg"
   xmlns:sodipodi="http://sodipodi.sourceforge.net/DTD/sodipodi-0.dtd"
   xmlns:inkscape="http://www.inkscape.org/namespaces/inkscape"
   id="Layer_1"
   enable-background="new 0 0 510.108 510.108"
   height="512"
   viewBox="0 0 510.108 510.108"
   width="512"
   version="1.1"
   sodipodi:docname="imu_ok.svg"
   inkscape:version="0.92.3 (2405546, 2018-03-11)">
  <metadata
     id="metadata11">
    <rdf:RDF>
      <cc:Work
         rdf:about="">
        <dc:format>image/svg+xml</dc:format>
        <dc:type
           rdf:resource="http://purl.org/dc/dcmitype/StillImage" />
      </cc:Work>
    </rdf:RDF>
  </metadata>
  <defs
     id="defs9" />
  <sodipodi:namedview
     pagecolor="#ffffff"
     bordercolor="#666666"
     borderopacity="1"
     objecttolerance="10"
     gridtolerance="10"
     guidetolerance="10"
     inkscape:pageopacity="0"
     inkscape:pageshadow="2"
     inkscape:window-width="1611"
     inkscape:window-height="982"
     id="namedview7"
     showgrid="false"
     inkscape:zoom="0.4609375"
     inkscape:cx="129.99917"
     inkscape:cy="32.670459"
     inkscape:window-x="69"
     inkscape:window-y="32"
     inkscape:window-maximized="1"
     inkscape:current-layer="Layer_1" />
  <ellipse
     style="fill:#00d700;fill-opacity:1;stroke:#000000;stroke-width:7.85601091;stroke-linecap:round;stroke-linejoin:miter;stroke-miterlimit:4;stroke-dasharray:none;stroke-dashoffset:0;stroke-opacity:1"
     id="path816"
     cx="255.0538"
     cy="255.054"
     rx="251.12581"
     ry="251.12599" />
  <g
     id="g4"
     style="fill:#000000;fill-opacity:1;stroke:none;stroke-width:11.85398579;stroke-miterlimit:4;stroke-dasharray:none;stroke-opacity:1"
     transform="matrix(0.77635694,0,0,0.77635694,57.04121,57.041169)">
    <path
       d="M 445.655,85.666 505.66,25.661 484.448,4.448 424.443,64.453 c -100,-89.103 -253.456,-85.956 -349.7,10.289 -96.229,96.229 -99.408,249.682 -10.289,349.7 l -60.006,60.006 21.213,21.213 60.005,-60.005 c 100,89.103 253.456,85.956 349.7,-10.289 96.23,-96.229 99.408,-249.683 10.289,-349.701 z M 30.054,255.054 c 0,-124.065 100.935,-225 225,-225 56.646,0 108.463,21.05 148.06,55.728 l -22.096,22.096 c -21.262,-12.773 -51.045,-13.607 -85.708,-2.054 -13.23,4.41 -26.752,10.486 -40.256,18.021 -13.504,-7.534 -27.026,-13.61 -40.256,-18.021 -41.731,-13.911 -76.403,-9.882 -97.63,11.345 -21.226,21.226 -25.254,55.898 -11.344,97.629 4.41,13.23 10.486,26.752 18.021,40.256 -7.534,13.504 -13.61,27.026 -18.021,40.256 -11.554,34.662 -10.719,64.445 2.054,85.707 L 85.782,403.113 C 51.104,363.517 30.054,311.701 30.054,255.054 Z m 345.77,-49.743 c -2.245,6.733 -5,13.57 -8.217,20.457 -8.346,-11.637 -17.696,-23.085 -27.912,-34.142 l 39.998,-39.998 c 4.554,13.468 3.312,32.138 -3.869,53.683 z m 0,99.486 c 9.983,29.948 8.49,54.343 -4.097,66.93 -12.586,12.585 -36.981,14.08 -66.93,4.097 -6.733,-2.244 -13.57,-5 -20.457,-8.217 30.881,-22.148 60.403,-51.389 83.266,-83.266 3.217,6.886 5.973,13.723 8.218,20.456 z m -120.77,46.501 c -14.326,-9.25 -28.546,-20.297 -42.198,-32.833 l 22.809,-22.809 c 16.701,7.955 37.347,5.079 51.209,-8.782 l 10e-4,-0.001 c 13.826,-13.827 16.748,-34.485 8.781,-51.208 l 22.809,-22.809 c 12.537,13.652 23.583,27.872 32.833,42.198 -23.401,36.243 -58.54,71.9 -96.244,96.244 z M 134.285,304.797 c 2.245,-6.733 5.001,-13.57 8.217,-20.457 8.346,11.637 17.696,23.086 27.912,34.142 l -39.998,39.998 c -4.555,-13.468 -3.313,-32.138 3.869,-53.683 z m 0,-99.486 c -9.983,-29.948 -8.49,-54.343 4.097,-66.93 7.072,-7.072 17.871,-10.642 31.29,-10.642 18.776,0 39.224,6.88 56.097,14.762 -30.881,22.148 -60.403,51.389 -83.266,83.266 -3.218,-6.886 -5.974,-13.723 -8.218,-20.456 z M 255.054,158.81 c 14.326,9.25 28.546,20.297 42.198,32.833 l -22.809,22.809 c -16.724,-7.967 -37.381,-5.045 -51.209,8.782 -13.826,13.827 -16.748,34.485 -8.781,51.208 l -22.809,22.809 c -12.537,-13.652 -23.583,-27.872 -32.833,-42.198 23.4,-36.242 58.539,-71.899 96.243,-96.243 z m 63.428,11.604 c -11.056,-10.216 -22.505,-19.566 -34.142,-27.912 6.887,-3.216 13.724,-5.973 20.457,-8.217 16.526,-5.509 37.33,-9.399 53.683,-3.869 z m -74.035,74.034 c 5.848,-5.848 15.364,-5.851 21.213,-0.001 5.849,5.849 5.849,15.365 0,21.213 -5.849,5.849 -15.365,5.85 -21.213,0 -5.848,-5.848 -5.848,-15.364 0,-21.212 z m -52.821,95.247 c 11.056,10.216 22.505,19.565 34.142,27.912 -6.887,3.217 -13.724,5.973 -20.457,8.217 -21.545,7.183 -40.215,8.424 -53.683,3.869 z m 63.428,140.359 c -56.646,0 -108.463,-21.05 -148.06,-55.728 l 22.102,-22.102 c 25.208,15.143 57.92,11.32 85.702,2.06 13.23,-4.41 26.752,-10.486 40.256,-18.021 25.507,14.231 56.497,26.154 85.574,26.154 21.464,0 39.383,-6.548 52.313,-19.478 21.226,-21.226 25.254,-55.898 11.344,-97.629 -4.41,-13.23 -10.486,-26.752 -18.02,-40.256 7.534,-13.504 13.61,-27.026 18.02,-40.256 11.554,-34.662 10.719,-64.445 -2.054,-85.707 l 22.096,-22.096 c 34.678,39.597 55.728,91.413 55.728,148.06 -0.001,124.065 -100.936,224.999 -225.001,224.999 z"
       id="path2"
       style="fill:#000000;fill-opacity:1;stroke:none;stroke-width:11.85398579;stroke-miterlimit:4;stroke-dasharray:none;stroke-opacity:1"
       inkscape:connector-curvature="0" />
  </g>
</svg>
