<?xml version="1.0" encoding="UTF-8" standalone="no"?>
<!-- Created with Inkscape (http://www.inkscape.org/) -->

<svg
   xmlns:dc="http://purl.org/dc/elements/1.1/"
   xmlns:cc="http://creativecommons.org/ns#"
   xmlns:rdf="http://www.w3.org/1999/02/22-rdf-syntax-ns#"
   xmlns:svg="http://www.w3.org/2000/svg"
   xmlns="http://www.w3.org/2000/svg"
   xmlns:sodipodi="http://sodipodi.sourceforge.net/DTD/sodipodi-0.dtd"
   xmlns:inkscape="http://www.inkscape.org/namespaces/inkscape"
   width="16.933372mm"
   height="20.892342mm"
   viewBox="0 0 16.933372 20.892342"
   version="1.1"
   id="svg8"
   inkscape:version="0.92.3 (2405546, 2018-03-11)"
   sodipodi:docname="link_nok.svg">
  <defs
     id="defs2" />
  <sodipodi:namedview
     id="base"
     pagecolor="#ffffff"
     bordercolor="#666666"
     borderopacity="1.0"
     inkscape:pageopacity="0.0"
     inkscape:pageshadow="2"
     inkscape:zoom="7.9195959"
     inkscape:cx="11.790259"
     inkscape:cy="38.106106"
     inkscape:document-units="mm"
     inkscape:current-layer="layer1"
     showgrid="false"
     fit-margin-top="0"
     fit-margin-left="0"
     fit-margin-right="0"
     fit-margin-bottom="0"
     inkscape:window-width="1851"
     inkscape:window-height="1012"
     inkscape:window-x="69"
     inkscape:window-y="32"
     inkscape:window-maximized="1" />
  <metadata
     id="metadata5">
    <rdf:RDF>
      <cc:Work
         rdf:about="">
        <dc:format>image/svg+xml</dc:format>
        <dc:type
           rdf:resource="http://purl.org/dc/dcmitype/StillImage" />
        <dc:title />
      </cc:Work>
    </rdf:RDF>
  </metadata>
  <g
     inkscape:label="Calque 1"
     inkscape:groupmode="layer"
     id="layer1"
     transform="translate(-15.652357,-240.46991)">
    <path
       style="fill:#d70900;fill-opacity:1;stroke:#000000;stroke-width:0.51307547;stroke-miterlimit:4;stroke-dasharray:none;stroke-opacity:1"
       d="m 15.916761,260.24209 0.006,-0.8637 0.06783,-0.13773 c 0.07617,-0.15467 0.21657,-0.29485 0.371933,-0.37137 0.09191,-0.0453 0.127549,-0.0488 0.590621,-0.0585 l 0.492809,-0.0103 0.741432,-1.70576 c 0.407788,-0.93819 0.749924,-1.71972 0.760302,-1.73678 0.03579,-0.0589 0.08817,-0.0442 0.206192,0.0573 0.311493,0.26807 0.921932,0.69365 1.317591,0.91857 0.584893,0.33249 1.232742,0.59038 1.881513,0.74892 0.524621,0.12822 0.450019,0.0722 0.622241,0.46684 0.08189,0.18764 0.23767,0.54585 0.346167,0.79603 l 0.197267,0.45487 0.905831,0.0103 0.905831,0.0103 0.113766,0.0533 c 0.152002,0.0714 0.30244,0.22582 0.380766,0.39111 l 0.06372,0.13445 0.0066,0.85287 0.0066,0.8529 h -4.995544 -4.995528 z m 7.614775,-4.49199 c -1.17682,-0.13082 -2.262076,-0.60122 -3.291097,-1.42653 -1.301539,-1.04387 -2.251917,-2.38709 -2.632868,-3.72115 -0.225688,-0.79035 -0.270361,-1.72112 -0.122841,-2.55944 0.05844,-0.33208 0.189887,-0.8291 0.300562,-1.13646 0.111994,-0.31101 0.441653,-0.98837 0.651527,-1.3387 0.194444,-0.32457 0.421806,-0.63061 0.468493,-0.63061 0.02071,0 2.036114,1.9999 4.694419,4.6583 3.529981,3.53012 4.654904,4.6667 4.644818,4.693 -0.04241,0.11052 -0.882329,0.62463 -1.462638,0.89527 -0.461438,0.21519 -1.247808,0.44535 -1.834072,0.53679 -0.253458,0.0396 -1.156888,0.0584 -1.416303,0.0296 z m 0.637093,-6.70149 c -0.425843,-0.42473 -0.783972,-0.78983 -0.795843,-0.81135 -0.01852,-0.0336 0.003,-0.0629 0.151485,-0.20675 0.267997,-0.25961 0.486338,-0.35134 0.834303,-0.35049 0.330885,9.7e-4 0.579968,0.10273 0.804902,0.32935 0.16271,0.16393 0.249209,0.3116 0.300883,0.51364 0.10593,0.41418 -0.0016,0.81026 -0.302776,1.11598 -0.07431,0.0754 -0.153909,0.14717 -0.176897,0.15949 -0.03753,0.0201 -0.120681,-0.0563 -0.816057,-0.74987 z m 3.654708,-0.2423 c -0.07456,-0.0578 -0.09339,-0.12177 -0.208993,-0.46648 -0.07219,-0.21526 -0.18439,-0.49904 -0.249321,-0.63062 -0.389378,-0.78892 -1.024364,-1.44123 -1.801902,-1.85103 -0.235222,-0.12398 -0.384286,-0.18482 -0.811704,-0.33132 -0.553752,-0.18982 -0.581891,-0.26231 -0.363712,-0.93703 0.212042,-0.65574 0.295806,-0.70232 0.903403,-0.50235 0.941292,0.30978 1.681239,0.76135 2.35565,1.43756 0.696566,0.69844 1.128081,1.42096 1.459289,2.44344 0.06831,0.21092 0.0832,0.28372 0.07592,0.37149 -0.0095,0.11404 -0.07545,0.22718 -0.167513,0.28713 -0.04893,0.0318 -0.859091,0.30305 -0.930811,0.29843 -0.07172,-0.005 -0.185748,-0.0614 -0.260305,-0.11922 z m 3.036253,-0.10924 c -0.0763,-0.0862 -0.056,-0.21421 -0.101896,-0.4342 -0.0935,-0.44815 -0.134799,-0.60827 -0.241817,-0.93756 -0.351762,-1.08235 -0.950499,-2.05112 -1.783501,-2.88576 -0.93144,-0.93327 -2.083461,-1.59517 -3.323476,-1.90949 -0.114942,-0.0291 -0.363934,-0.0849 -0.553318,-0.12394 -0.275385,-0.0567 -0.359036,-0.0822 -0.417753,-0.12697 -0.07824,-0.0596 -0.150538,-0.19275 -0.150984,-0.2779 -5.33e-4,-0.091 0.16304,-0.88777 0.194759,-0.94911 0.04255,-0.0823 0.142731,-0.16172 0.241107,-0.1912 0.07187,-0.0215 0.125739,-0.0171 0.397079,0.0331 0.8454,0.15617 1.586393,0.39765 2.319501,0.75592 2.209211,1.07964 3.904971,3.0729 4.608418,5.41693 0.11781,0.39256 0.281446,1.14727 0.281446,1.29804 0,0.12967 -0.08635,0.26183 -0.214966,0.32897 -0.07079,0.0369 -0.560437,0.18058 -0.695663,0.17948 -0.135226,-9.7e-4 -0.482635,-0.0902 -0.558936,-0.17627 z"
       id="path837"
       inkscape:connector-curvature="0"
       sodipodi:nodetypes="cccccccccccccccccccccccccccsccsscccccccccccccczcccccccccczzzccccccccccccsczz" />
  </g>
</svg>
