<?xml version="1.0" encoding="UTF-8" standalone="no"?>
<svg
   xmlns:dc="http://purl.org/dc/elements/1.1/"
   xmlns:cc="http://creativecommons.org/ns#"
   xmlns:rdf="http://www.w3.org/1999/02/22-rdf-syntax-ns#"
   xmlns:svg="http://www.w3.org/2000/svg"
   xmlns="http://www.w3.org/2000/svg"
   xmlns:sodipodi="http://sodipodi.sourceforge.net/DTD/sodipodi-0.dtd"
   xmlns:inkscape="http://www.inkscape.org/namespaces/inkscape"
   width="20"
   height="20"
   viewBox="0 0 20 20"
   version="1.1"
   id="svg6"
   sodipodi:docname="lock_warning.svg"
   inkscape:version="0.92.3 (2405546, 2018-03-11)">
  <metadata
     id="metadata12">
    <rdf:RDF>
      <cc:Work
         rdf:about="">
        <dc:format>image/svg+xml</dc:format>
        <dc:type
           rdf:resource="http://purl.org/dc/dcmitype/StillImage" />
      </cc:Work>
    </rdf:RDF>
  </metadata>
  <defs
     id="defs10" />
  <sodipodi:namedview
     pagecolor="#ffffff"
     bordercolor="#666666"
     borderopacity="1"
     objecttolerance="10"
     gridtolerance="10"
     guidetolerance="10"
     inkscape:pageopacity="0"
     inkscape:pageshadow="2"
     inkscape:window-width="1680"
     inkscape:window-height="1014"
     id="namedview8"
     showgrid="false"
     inkscape:zoom="23.6"
     inkscape:cx="-4.3641408"
     inkscape:cy="8.7209015"
     inkscape:window-x="1680"
     inkscape:window-y="0"
     inkscape:window-maximized="1"
     inkscape:current-layer="svg6" />
  <title
     id="title2">
    lock
  </title>
  <path
     d="M16.07 8H15V5s0-5-5-5-5 5-5 5v3H3.93A1.93 1.93 0 0 0 2 9.93v8.15A1.93 1.93 0 0 0 3.93 20h12.14A1.93 1.93 0 0 0 18 18.07V9.93A1.93 1.93 0 0 0 16.07 8zM10 16a2 2 0 1 1 2-2 2 2 0 0 1-2 2zm3-8H7V5.5C7 4 7 2 10 2s3 2 3 3.5z"
     id="path4"
     style="fill:#ff3e3e;fill-opacity:1" />
</svg>
