<?xml version="1.0" encoding="UTF-8" standalone="no"?>
<!-- Svg Vector Icons : http://www.onlinewebfonts.com/icon -->

<svg
   xmlns:dc="http://purl.org/dc/elements/1.1/"
   xmlns:cc="http://creativecommons.org/ns#"
   xmlns:rdf="http://www.w3.org/1999/02/22-rdf-syntax-ns#"
   xmlns:svg="http://www.w3.org/2000/svg"
   xmlns="http://www.w3.org/2000/svg"
   xmlns:sodipodi="http://sodipodi.sourceforge.net/DTD/sodipodi-0.dtd"
   xmlns:inkscape="http://www.inkscape.org/namespaces/inkscape"
   version="1.1"
   x="0px"
   y="0px"
   viewBox="0 0 1000 1000"
   enable-background="new 0 0 1000 1000"
   xml:space="preserve"
   id="svg8"
   sodipodi:docname="no_ac.svg"
   inkscape:version="0.92.3 (2405546, 2018-03-11)"><defs
   id="defs12" /><sodipodi:namedview
   pagecolor="#ffffff"
   bordercolor="#666666"
   borderopacity="1"
   objecttolerance="10"
   gridtolerance="10"
   guidetolerance="10"
   inkscape:pageopacity="0"
   inkscape:pageshadow="2"
   inkscape:window-width="1611"
   inkscape:window-height="982"
   id="namedview10"
   showgrid="false"
   inkscape:zoom="0.6675088"
   inkscape:cx="546.61644"
   inkscape:cy="559.02717"
   inkscape:window-x="69"
   inkscape:window-y="32"
   inkscape:window-maximized="1"
   inkscape:current-layer="svg8" />
<metadata
   id="metadata2"> Svg Vector Icons : http://www.onlinewebfonts.com/icon <rdf:RDF><cc:Work
     rdf:about=""><dc:format>image/svg+xml</dc:format><dc:type
       rdf:resource="http://purl.org/dc/dcmitype/StillImage" /></cc:Work></rdf:RDF></metadata>
<g
   id="g6"
   transform="matrix(0.5933708,0,0,0.5933708,203.3146,203.3146)"><path
     d="m 500,10 c 67.3,0 130.8,12.9 190.6,38.7 59.8,25.8 111.8,60.9 155.9,105.4 44.1,44.5 79.1,96.4 104.8,155.9 25.8,59.4 38.7,122.7 38.7,190 0,68 -12.9,131.8 -38.7,191.2 -25.8,59.4 -60.7,111.4 -104.8,155.9 -44.1,44.5 -96.1,79.4 -155.9,104.8 C 630.8,977.3 567.3,990 500,990 432,990 368.3,977.3 308.8,951.9 249.4,926.5 197.4,891.5 153,847 108.5,802.5 73.6,750.6 48.2,691.1 22.7,631.8 10,568 10,500 10,432.7 22.7,369.4 48.1,309.9 73.5,250.5 108.5,198.5 152.9,154 197.4,109.5 249.3,74.4 308.8,48.6 368.3,22.9 432,10 500,10 Z m -3.4,134.6 c -48.6,0 -94.2,9.2 -136.8,27.5 -42.6,18.3 -79.8,43.4 -111.6,75.1 -31.8,31.8 -56.8,69 -75.1,111.6 -18.3,42.6 -27.5,88.2 -27.5,136.8 0,37.4 5.2,72.3 15.7,104.8 10.5,32.5 25.4,63 44.9,91.4 L 692.8,206.3 C 664.4,186.9 633.7,171.7 600.9,160.9 568,150 533.3,144.6 496.6,144.6 Z m 0,701.9 c 47.8,0 93.1,-9.2 135.7,-27.5 42.6,-18.3 79.8,-43.4 111.6,-75.1 31.8,-31.8 56.8,-69 75.1,-111.6 18.3,-42.6 27.5,-88.2 27.5,-136.8 0,-69.5 -18.3,-133.1 -54.9,-190.6 L 306,790.4 c 28.4,17.9 58.3,31.8 89.7,41.5 31.4,9.7 65.1,14.6 100.9,14.6 z"
     id="path4"
     inkscape:connector-curvature="0" /></g>
</svg>