<?xml version="1.0" encoding="UTF-8" standalone="no"?>
<!-- Svg Vector Icons : http://www.onlinewebfonts.com/icon -->

<svg
   xmlns:dc="http://purl.org/dc/elements/1.1/"
   xmlns:cc="http://creativecommons.org/ns#"
   xmlns:rdf="http://www.w3.org/1999/02/22-rdf-syntax-ns#"
   xmlns:svg="http://www.w3.org/2000/svg"
   xmlns="http://www.w3.org/2000/svg"
   xmlns:sodipodi="http://sodipodi.sourceforge.net/DTD/sodipodi-0.dtd"
   xmlns:inkscape="http://www.inkscape.org/namespaces/inkscape"
   version="1.1"
   x="0px"
   y="0px"
   viewBox="0 0 64 64"
   enable-background="new 0 0 1000 1000"
   xml:space="preserve"
   id="svg8"
   sodipodi:docname="678ec8d14746084fe857e1b41aa3e162.svg"
   width="64"
   height="64"
   inkscape:version="0.92.3 (2405546, 2018-03-11)"><defs
   id="defs12" /><sodipodi:namedview
   pagecolor="#ffffff"
   bordercolor="#666666"
   borderopacity="1"
   objecttolerance="10"
   gridtolerance="10"
   guidetolerance="10"
   inkscape:pageopacity="0"
   inkscape:pageshadow="2"
   inkscape:window-width="1851"
   inkscape:window-height="1012"
   id="namedview10"
   showgrid="false"
   inkscape:zoom="2.8284271"
   inkscape:cx="68.857694"
   inkscape:cy="63.958297"
   inkscape:window-x="69"
   inkscape:window-y="32"
   inkscape:window-maximized="1"
   inkscape:current-layer="svg8" />
<metadata
   id="metadata2"> Svg Vector Icons : http://www.onlinewebfonts.com/icon <rdf:RDF><cc:Work
     rdf:about=""><dc:format>image/svg+xml</dc:format><dc:type
       rdf:resource="http://purl.org/dc/dcmitype/StillImage" /><dc:title></dc:title></cc:Work></rdf:RDF></metadata>
<g
   id="g6"
   transform="matrix(0.0629301,0,0,0.06121824,0.53809786,1.38782)"><path
     d="m 863.9,547.8 c 2,-15.7 3.5,-31.6 3.5,-47.8 0,-16.2 -1.5,-32.1 -3.5,-47.8 l 103.6,-81.1 c 9.3,-7.4 12,-20.6 5.9,-31.4 l -98,-169.8 C 869.3,159.4 856.5,155 845.5,159.4 l -122,49.2 C 698.3,189.2 670.6,172.8 640.7,160.3 L 622.4,30.6 C 620.2,19.1 610.1,10 597.9,10 h -196 c -12.3,0 -22.3,9.1 -24.3,20.6 l -18.4,129.8 c -29.9,12.5 -57.6,28.7 -82.8,48.3 l -122,-49.2 c -11,-4.2 -23.8,0 -29.9,10.5 l -98,169.8 c -6.1,10.5 -3.4,23.8 5.9,31.4 l 103.4,81.1 c -2,15.7 -3.4,31.6 -3.4,47.8 0,16.2 1.5,32.1 3.4,47.8 l -103.4,81 c -9.3,7.4 -12,20.6 -5.9,31.4 l 98,169.8 c 6.1,10.5 18.9,14.9 29.9,10.5 l 122,-49.2 c 25.2,19.3 52.9,35.7 82.8,48.2 l 18.4,129.9 c 2,11.5 12,20.6 24.3,20.6 h 196 c 12.3,0 22.3,-9.1 24.3,-20.6 l 18.4,-129.9 c 29.9,-12.5 57.6,-28.7 82.8,-48.2 l 122,49.2 c 11,4.2 23.8,0 29.9,-10.5 l 98,-169.8 c 6.1,-10.6 3.4,-23.8 -5.9,-31.4 z m -364,123.7 c -94.8,0 -171.5,-76.7 -171.5,-171.5 0,-94.8 76.7,-171.5 171.5,-171.5 94.8,0 171.5,76.7 171.5,171.5 0,94.8 -76.7,171.5 -171.5,171.5 z"
     id="path4"
     inkscape:connector-curvature="0" /></g>
</svg>