<?xml version="1.0" encoding="UTF-8" standalone="no"?>
<!-- Generator: Adobe Illustrator 19.0.0, SVG Export Plug-In . SVG Version: 6.00 Build 0)  -->

<svg
   xmlns:dc="http://purl.org/dc/elements/1.1/"
   xmlns:cc="http://creativecommons.org/ns#"
   xmlns:rdf="http://www.w3.org/1999/02/22-rdf-syntax-ns#"
   xmlns:svg="http://www.w3.org/2000/svg"
   xmlns="http://www.w3.org/2000/svg"
   xmlns:sodipodi="http://sodipodi.sourceforge.net/DTD/sodipodi-0.dtd"
   xmlns:inkscape="http://www.inkscape.org/namespaces/inkscape"
   version="1.1"
   id="Capa_1"
   x="0px"
   y="0px"
   viewBox="0 0 512 512"
   style="enable-background:new 0 0 512 512;"
   xml:space="preserve"
   sodipodi:docname="throttle_killed.svg"
   inkscape:version="0.92.5 (2060ec1f9f, 2020-04-08)"><metadata
   id="metadata53"><rdf:RDF><cc:Work
       rdf:about=""><dc:format>image/svg+xml</dc:format><dc:type
         rdf:resource="http://purl.org/dc/dcmitype/StillImage" /></cc:Work></rdf:RDF></metadata><defs
   id="defs51" /><sodipodi:namedview
   pagecolor="#ffffff"
   bordercolor="#666666"
   borderopacity="1"
   objecttolerance="10"
   gridtolerance="10"
   guidetolerance="10"
   inkscape:pageopacity="0"
   inkscape:pageshadow="2"
   inkscape:window-width="1848"
   inkscape:window-height="1016"
   id="namedview49"
   showgrid="false"
   inkscape:zoom="0.921875"
   inkscape:cx="352.33832"
   inkscape:cy="136.21299"
   inkscape:window-x="72"
   inkscape:window-y="27"
   inkscape:window-maximized="1"
   inkscape:current-layer="Capa_1" />

<g
   id="g8"
   style="fill:#e63b3b;fill-opacity:1">
	<polygon
   style="fill:#e63b3b;fill-opacity:1"
   points="292.81,258.274 377.103,229.089 501.963,49.119 462.917,10.073 253.763,219.227  "
   id="polygon4" />
	<polygon
   style="fill:#e63b3b;fill-opacity:1"
   points="219.19,253.799 134.897,282.984 10.037,462.954 49.083,502 258.237,292.845  "
   id="polygon6" />
</g>
<path
   style="fill:#555555;fill-opacity:1"
   d="M282.159,230.006c-14.447-14.376-37.871-14.376-52.318,0c-14.447,14.376-14.447,37.685,0,52.061  c14.447,14.376,37.87,14.376,52.318,0C296.606,267.691,296.606,244.382,282.159,230.006z"
   id="path10" />
<path
   d="M 509.033,42.049 469.988,3.002 c -3.904,-3.903 -10.236,-3.903 -14.141,0 -8.37411,8.56675 -198.85182,198.75777 -206.757,206.76 -9.633,1.414 -18.905,5.798 -26.303,13.16 -6.559,6.527 -10.934,14.646 -12.781,23.481 l -78.38,27.137 c -2.004,0.694 -3.735,2.007 -4.944,3.749 L 1.822,457.255 c -2.757,3.973 -2.275,9.35 1.145,12.769 l 39.046,39.046 c 1.953,1.952 4.511,2.929 7.07,2.929 2.559,0 5.118,-0.977 7.07,-2.929 1.043511,-0.90413 199.05133,-198.8419 206.758,-206.755 9.633,-1.414 18.905,-5.798 26.303,-13.159 6.559,-6.527 10.934,-14.646 12.781,-23.481 l 78.38,-27.137 c 2.004,-0.694 3.735,-2.007 4.944,-3.749 L 510.177,54.819 c 2.758,-3.974 2.276,-9.351 -1.144,-12.77 z M 49.083,487.86 23.014,461.79 141.253,291.363 l 69.148,-23.94 c 2.037,8.157 6.264,15.637 12.388,21.731 4.43,4.408 9.536,7.74 14.985,10.016 z M 236.894,274.98 c -5.087,-5.062 -7.89,-11.79 -7.89,-18.943 0,-0.136 0.008,-0.27 0.01,-0.405 0.151,-0.806 0.201,-1.634 0.147,-2.469 0.647,-6.067 3.333,-11.691 7.733,-16.07 5.268,-5.241 12.187,-7.863 19.106,-7.863 6.919,0 13.839,2.622 19.106,7.863 5.087,5.062 7.89,11.79 7.89,18.943 0,0.136 -0.008,0.27 -0.01,0.405 -0.151,0.806 -0.201,1.634 -0.147,2.469 -0.647,6.067 -3.333,11.691 -7.733,16.07 -10.535,10.484 -27.679,10.483 -38.212,0 z M 370.748,220.709 301.6,244.65 c -2.037,-8.157 -6.264,-15.637 -12.388,-21.731 -4.43,-4.408 -9.536,-7.74 -14.985,-10.016 l 188.69,-188.69 26.069,26.069 z"
   id="path12"
   inkscape:connector-curvature="0"
   sodipodi:nodetypes="cccccccccccsccccccccccccccccscccscsccccccccccc" />


<g
   id="g18">
</g>
<g
   id="g20">
</g>
<g
   id="g22">
</g>
<g
   id="g24">
</g>
<g
   id="g26">
</g>
<g
   id="g28">
</g>
<g
   id="g30">
</g>
<g
   id="g32">
</g>
<g
   id="g34">
</g>
<g
   id="g36">
</g>
<g
   id="g38">
</g>
<g
   id="g40">
</g>
<g
   id="g42">
</g>
<g
   id="g44">
</g>
<g
   id="g46">
</g>
</svg>