<?xml version="1.0" encoding="UTF-8" standalone="no"?>
<!-- Created with Inkscape (http://www.inkscape.org/) -->

<svg
   xmlns:dc="http://purl.org/dc/elements/1.1/"
   xmlns:cc="http://creativecommons.org/ns#"
   xmlns:rdf="http://www.w3.org/1999/02/22-rdf-syntax-ns#"
   xmlns:svg="http://www.w3.org/2000/svg"
   xmlns="http://www.w3.org/2000/svg"
   xmlns:sodipodi="http://sodipodi.sourceforge.net/DTD/sodipodi-0.dtd"
   xmlns:inkscape="http://www.inkscape.org/namespaces/inkscape"
   width="125.55616mm"
   height="125.30691mm"
   viewBox="0 0 125.55616 125.30691"
   version="1.1"
   id="svg8"
   inkscape:version="0.92.3 (2405546, 2018-03-11)"
   sodipodi:docname="quad.svg">
  <defs
     id="defs2" />
  <sodipodi:namedview
     id="base"
     pagecolor="#ffffff"
     bordercolor="#666666"
     borderopacity="1.0"
     inkscape:pageopacity="0.0"
     inkscape:pageshadow="2"
     inkscape:zoom="0.7"
     inkscape:cx="-7.6969581"
     inkscape:cy="89.943521"
     inkscape:document-units="mm"
     inkscape:current-layer="layer1"
     showgrid="false"
     fit-margin-top="0"
     fit-margin-left="0"
     fit-margin-right="0"
     fit-margin-bottom="0"
     inkscape:window-width="1611"
     inkscape:window-height="982"
     inkscape:window-x="69"
     inkscape:window-y="32"
     inkscape:window-maximized="1" />
  <metadata
     id="metadata5">
    <rdf:RDF>
      <cc:Work
         rdf:about="">
        <dc:format>image/svg+xml</dc:format>
        <dc:type
           rdf:resource="http://purl.org/dc/dcmitype/StillImage" />
        <dc:title></dc:title>
      </cc:Work>
    </rdf:RDF>
  </metadata>
  <g
     inkscape:label="Calque 1"
     inkscape:groupmode="layer"
     id="layer1"
     transform="translate(-14.761139,-31.281582)">
    <path
    pprz="ac_color"
    fill="#ff0000"
       style="fill-opacity:0.8;stroke:#000000;stroke-width:0.565;stroke-miterlimit:4;stroke-dasharray:none;stroke-opacity:1"
       d="m 35.570263,155.88368 c -5.0583,-1.09884 -9.00946,-3.24714 -12.70771,-6.90933 -3.77207,-3.73529 -5.91186,-7.48813 -7.18754,-12.60573 -0.78351,-3.14321 -0.84012,-8.75797 -0.11965,-11.86823 1.90263,-8.21364 7.75588,-15.30577 15.18435,-18.39825 3.77459,-1.57137 5.60452,-1.91902 10.254506,-1.94815 3.786087,-0.0237 4.328248,0.0294 5.131718,0.50265 1.482633,0.8733 2.012032,1.80769 2.012032,3.55122 0,1.83377 -0.442439,2.7518 -1.703194,3.53399 -0.859197,0.53305 -1.225352,0.57791 -4.136435,0.50672 -3.748597,-0.0917 -6.249537,0.34482 -8.791667,1.53443 -4.69083,2.1951 -7.84995,5.61104 -9.6584,10.4436 -0.68618,1.83359 -0.81216,2.58203 -0.91634,5.44367 -0.14628,4.01845 0.19814,5.64806 1.94585,9.20663 1.71419,3.49031 4.38301,6.15434 7.83672,7.82264 10.349811,4.99942 21.942974,0.0841 25.52489,-10.82207 0.60253,-1.83458 0.701738,-2.61497 0.744436,-5.85583 0.04191,-3.18106 0.12686,-3.87204 0.569132,-4.62932 1.606159,-2.75012 5.03328,-2.75828 6.881051,-0.0164 1.173778,1.74177 1.159517,7.14034 -0.03124,11.82444 -1.827422,7.18856 -6.763036,13.23818 -13.502306,16.54988 -3.944469,1.93832 -6.064403,2.42746 -10.980208,2.5335 -3.251135,0.0701 -4.567125,-0.0128 -6.349995,-0.40009 z m 72.495827,0.12064 c -9.927938,-2.08548 -17.386576,-9.18953 -20.020288,-19.06851 -0.608905,-2.28398 -0.707766,-3.18862 -0.722871,-6.61459 -0.01442,-3.27248 0.06223,-4.11594 0.436964,-4.80778 1.466308,-2.70712 5.676464,-2.92715 7.175024,-0.37498 0.413925,0.70494 0.504338,1.47907 0.552749,4.73257 0.06481,4.35533 0.469352,6.09234 2.183183,9.37402 1.955516,3.74447 6.090859,7.21967 10.206189,8.57693 1.87442,0.6182 2.62843,0.71947 5.48072,0.73615 2.76327,0.0162 3.6337,-0.0826 5.29166,-0.60027 3.12014,-0.97426 5.4469,-2.33215 7.54232,-4.40167 2.09899,-2.07303 3.44566,-4.18061 4.5147,-7.06563 0.95964,-2.58977 1.19282,-7.11031 0.52225,-10.1244 -0.89525,-4.02397 -3.67209,-8.31011 -6.85559,-10.58181 -3.78545,-2.70124 -7.22954,-3.7192 -11.88298,-3.51224 -2.53908,0.11293 -2.97285,0.065 -3.95326,-0.43702 -1.49576,-0.76587 -2.12201,-1.70823 -2.25759,-3.39716 -0.13268,-1.65267 0.53297,-2.87446 2.05231,-3.76698 0.83556,-0.49085 1.33503,-0.54076 5.15847,-0.51545 3.40061,0.0225 4.6328,0.13649 6.26412,0.57944 7.97461,2.16534 13.94497,7.12134 17.43616,14.47378 1.94977,4.10621 2.4889,6.59386 2.46568,11.37709 -0.0164,3.37523 -0.11989,4.34509 -0.69209,6.48533 -2.48024,9.27682 -8.69547,15.60018 -18.09189,18.40664 -2.0457,0.611 -2.9281,0.71545 -6.72052,0.79557 -3.00175,0.0634 -4.90291,-0.0206 -6.08542,-0.26903 z m 3.25767,-21.62759 c -0.60955,-0.33885 -2.58651,-2.22269 -4.39482,-4.1878 -9.101226,-9.89041 -19.703902,-17.87057 -25.850348,-19.45639 -2.123307,-0.54782 -6.3599,-0.41354 -8.334374,0.26417 -6.136309,2.10621 -13.334211,7.48527 -23.018749,17.20214 -4.528563,4.54368 -5.757677,5.63478 -6.64528,5.89911 -2.182005,0.64979 -3.843626,0.25875 -5.248726,-1.2352 -0.65804,-0.69966 -0.79714,-1.09144 -0.8805,-2.47998 -0.14078,-2.34468 0.44943,-3.23763 4.748104,-7.18359 7.590641,-6.96783 14.549265,-15.35942 17.358028,-20.93252 1.492975,-2.962333 1.913165,-4.690423 1.913165,-7.868143 0,-4.73408 -1.02616,-7.55492 -4.770056,-13.112524 -3.099776,-4.601443 -6.044475,-7.998494 -12.634145,-14.574953 -3.382311,-3.375528 -6.100186,-6.307378 -6.307906,-6.804523 -0.88074,-2.107914 -0.25192,-4.410056 1.5736,-5.760971 0.917493,-0.678965 3.854501,-0.76274 4.999596,-0.142607 0.396256,0.214593 3.551412,3.192168 7.011458,6.616837 14.340757,14.19412 21.888809,18.312301 30.297722,16.530295 5.744662,-1.2174 13.359936,-6.668386 23.618151,-16.905786 3.34691,-3.340124 6.46848,-6.233054 6.93681,-6.428737 3.77789,-1.578502 7.2823,1.827011 6.16187,5.987972 -0.27547,1.023009 -1.12769,2.002068 -6.44611,7.405571 -9.62443,9.778381 -14.615421,16.464438 -16.597174,22.233996 -0.4864,1.41607 -0.591617,2.30386 -0.595786,5.02708 -0.0047,3.06626 0.05521,3.46726 0.821888,5.50221 2.267839,6.019363 9.522172,15.331943 18.588142,23.862103 1.90231,1.78987 3.63804,3.60106 3.8572,4.02485 0.56058,1.08406 0.7547,3.1488 0.39771,4.23047 -0.16616,0.50347 -0.71743,1.31794 -1.22505,1.80994 -0.81145,0.7865 -1.12245,0.90653 -2.5747,0.99373 -1.35551,0.0814 -1.85048,-0.0113 -2.75972,-0.51675 z M 35.967133,83.894278 c -2.91071,-0.631848 -4.11347,-1.069109 -7.01382,-2.549874 -6.28754,-3.210086 -11.02653,-9.020394 -13.14016,-16.110677 -0.64568,-2.165984 -0.71094,-2.787861 -0.72192,-6.879166 -0.0143,-5.33483 0.41876,-7.374319 2.47202,-11.641666 1.53659,-3.19353 2.58572,-4.678955 5.10886,-7.233433 3.52189,-3.565641 7.8518,-6.009793 12.81693,-7.234914 3.44237,-0.84939 8.782795,-0.798603 12.255089,0.116545 7.706581,2.031126 13.761634,7.079117 17.214955,14.351802 1.937046,4.079415 2.485334,6.591609 2.483053,11.377083 -0.0016,3.240169 -0.08503,4.122779 -0.454768,4.807786 -1.463797,2.711944 -5.675186,2.926722 -7.178622,0.366106 -0.420426,-0.716058 -0.508855,-1.46967 -0.555323,-4.732578 -0.04756,-3.33969 -0.148194,-4.163777 -0.721614,-5.909365 -1.029645,-3.134421 -2.424719,-5.40299 -4.691401,-7.628824 -2.287469,-2.246248 -4.124391,-3.424175 -6.93683,-4.448242 -1.768798,-0.644056 -2.28028,-0.706618 -5.777071,-0.706618 -3.496788,0 -4.008268,0.06256 -5.777068,0.706618 -2.82137,1.027318 -4.64484,2.205183 -6.90572,4.46073 -2.32479,2.319304 -3.7198,4.557266 -4.69258,7.528137 -0.88708,2.70913 -1.00956,7.209237 -0.27004,9.921875 1.37605,5.047495 5.01506,9.54869 9.57741,11.846564 2.82742,1.424062 4.30535,1.733643 8.497867,1.780043 3.413333,0.03778 4.128986,0.1188 4.867134,0.551029 1.31258,0.768593 1.919131,1.758736 2.046073,3.340036 0.132138,1.646031 -0.533852,2.876995 -2.028973,3.750194 -1.353619,0.790558 -7.180741,0.885588 -10.473481,0.170809 z m 73.718947,0.256606 c -2.10883,-0.497892 -3.31741,-2.209117 -3.11298,-4.407637 0.14889,-1.601174 0.72393,-2.590642 1.86301,-3.205703 0.66375,-0.358399 1.43203,-0.429307 4.01932,-0.370974 3.75319,0.08462 6.25423,-0.353256 8.78675,-1.538365 4.72738,-2.212207 7.88167,-5.657781 9.72901,-10.627446 0.60229,-1.620266 0.74217,-2.49174 0.8442,-5.259832 0.14813,-4.018378 -0.19561,-5.646012 -1.94432,-9.206628 -2.0232,-4.119516 -5.68185,-7.341709 -10.20707,-8.989438 -1.7688,-0.644056 -2.28028,-0.706618 -5.77707,-0.706618 -3.4968,0 -4.00828,0.06256 -5.77708,0.706618 -2.81243,1.024067 -4.64936,2.201994 -6.93683,4.448242 -2.261334,2.220587 -3.653707,4.481449 -4.698271,7.628824 -0.581509,1.752147 -0.678675,2.537161 -0.71328,5.762805 -0.03427,3.194203 -0.115662,3.863784 -0.562753,4.629308 -1.60896,2.754918 -5.034518,2.765475 -6.883876,0.02122 -0.732745,-1.087319 -1.014798,-3.537082 -0.796496,-6.917933 0.395846,-6.130461 2.783306,-11.694165 6.912202,-16.108111 10.284624,-10.994647 27.650154,-11.29767 38.114214,-0.66508 4.5697,4.643295 7.14249,10.562201 7.45828,17.158342 0.30129,6.293373 -1.53532,12.079522 -5.48678,17.285797 -5.15992,6.79849 -12.95117,10.684478 -21.25388,10.60066 -1.47551,-0.0149 -3.08484,-0.122017 -3.5763,-0.238051 z"
       id="path826"
       inkscape:connector-curvature="0" />
  </g>
</svg>
