<?xml version="1.0" encoding="UTF-8" standalone="no"?>
<!-- Created with Inkscape (http://www.inkscape.org/) -->

<svg
   xmlns:dc="http://purl.org/dc/elements/1.1/"
   xmlns:cc="http://creativecommons.org/ns#"
   xmlns:rdf="http://www.w3.org/1999/02/22-rdf-syntax-ns#"
   xmlns:svg="http://www.w3.org/2000/svg"
   xmlns="http://www.w3.org/2000/svg"
   xmlns:sodipodi="http://sodipodi.sourceforge.net/DTD/sodipodi-0.dtd"
   xmlns:inkscape="http://www.inkscape.org/namespaces/inkscape"
   width="125.55616mm"
   height="125.30691mm"
   viewBox="0 0 125.55616 125.30691"
   version="1.1"
   id="svg8"
   inkscape:version="0.92.3 (2405546, 2018-03-11)"
   sodipodi:docname="rotorcraft.svg">
  <defs
     id="defs2" />
  <sodipodi:namedview
     id="base"
     pagecolor="#ffffff"
     bordercolor="#666666"
     borderopacity="1.0"
     inkscape:pageopacity="0.0"
     inkscape:pageshadow="2"
     inkscape:zoom="2"
     inkscape:cx="100.24893"
     inkscape:cy="300.62153"
     inkscape:document-units="mm"
     inkscape:current-layer="layer1"
     showgrid="false"
     fit-margin-top="0"
     fit-margin-left="0"
     fit-margin-right="0"
     fit-margin-bottom="0"
     inkscape:window-width="1680"
     inkscape:window-height="1014"
     inkscape:window-x="1680"
     inkscape:window-y="0"
     inkscape:window-maximized="1"
     inkscape:measure-start="0,0"
     inkscape:measure-end="0,0" />
  <metadata
     id="metadata5">
    <rdf:RDF>
      <cc:Work
         rdf:about="">
        <dc:format>image/svg+xml</dc:format>
        <dc:type
           rdf:resource="http://purl.org/dc/dcmitype/StillImage" />
        <dc:title />
      </cc:Work>
    </rdf:RDF>
  </metadata>
  <g
     inkscape:label="Calque 1"
     inkscape:groupmode="layer"
     id="layer1"
     transform="translate(-14.761139,-31.281582)">
    <path
       pprz="ac_color"
       style="fill:#ff0000;fill-opacity:0.99636364;stroke:#000000;stroke-width:0.44690025;stroke-miterlimit:4;stroke-dasharray:none;stroke-opacity:1"
       d="m 44.34287,142.9348 c -4.000983,-0.86916 -7.126247,-2.56841 -10.051467,-5.4651 -2.983609,-2.95452 -4.676127,-5.92292 -5.685156,-9.97081 -0.619736,-2.48619 -0.664513,-6.92732 -0.09464,-9.38746 1.50493,-6.49677 6.134698,-12.10646 12.010424,-14.55253 2.985603,-1.24292 4.433029,-1.5179 8.111047,-1.54094 2.994696,-0.0187 3.423531,0.0233 4.059055,0.39758 1.172724,0.69076 1.591465,1.42984 1.591465,2.80893 0,1.45046 -0.349958,2.1766 -1.347182,2.79529 -0.679603,0.42163 -0.969222,0.45711 -3.271812,0.4008 -2.965043,-0.0725 -4.943221,0.27275 -6.953979,1.2137 -3.710325,1.73626 -6.209106,4.43818 -7.639543,8.26061 -0.54275,1.45032 -0.642397,2.04232 -0.724801,4.3058 -0.115704,3.17849 0.156724,4.46747 1.539117,7.28221 1.355879,2.76074 3.466846,4.86792 6.198641,6.1875 8.18643,3.95441 17.356319,0.0665 20.189522,-8.55997 0.476585,-1.45111 0.555056,-2.06838 0.588829,-4.63181 0.03315,-2.51614 0.100343,-3.06268 0.450169,-3.66167 1.270429,-2.17528 3.981193,-2.18173 5.442731,-0.013 0.928428,1.3777 0.917148,5.64783 -0.02471,9.35283 -1.445443,5.68596 -5.349385,10.47105 -10.679971,13.09052 -3.119972,1.53316 -4.796785,1.92006 -8.685058,2.00393 -2.571563,0.0555 -3.612477,-0.0101 -5.022681,-0.31646 z m 57.34231,0.0954 c -7.852742,-1.64956 -13.75233,-7.26868 -15.835528,-15.08269 -0.481628,-1.80657 -0.559824,-2.52212 -0.571772,-5.23197 -0.01141,-2.58845 0.04922,-3.2556 0.345627,-3.80283 1.159812,-2.14126 4.489935,-2.3153 5.675257,-0.2966 0.327404,0.55759 0.398918,1.16991 0.43721,3.74334 0.05126,3.44495 0.371245,4.81888 1.726841,7.4146 1.546762,2.96178 4.81771,5.71057 8.072825,6.78413 1.48262,0.48898 2.07902,0.56908 4.33511,0.58228 2.18567,0.0128 2.87416,-0.0653 4.18557,-0.4748 2.46794,-0.77061 4.30835,-1.84467 5.96577,-3.48161 1.66025,-1.63971 2.72543,-3.30675 3.57101,-5.58873 0.75905,-2.04844 0.94349,-5.62406 0.41309,-8.00813 -0.70812,-3.18286 -2.90453,-6.57308 -5.42259,-8.36994 -2.9942,-2.13661 -5.71838,-2.94179 -9.39913,-2.77809 -2.00835,0.0893 -2.35145,0.0514 -3.12693,-0.34567 -1.1831,-0.60578 -1.67845,-1.35116 -1.78569,-2.68706 -0.10495,-1.30722 0.42156,-2.27363 1.62332,-2.97959 0.66091,-0.38825 1.05598,-0.42772 4.08022,-0.4077 2.68979,0.0178 3.66442,0.10796 4.95475,0.45832 6.30771,1.71273 11.03011,5.63279 13.79155,11.44838 1.54222,3.24791 1.96866,5.21557 1.95029,8.99898 -0.013,2.66972 -0.0948,3.43685 -0.54743,5.12973 -1.9618,7.33772 -6.87789,12.33933 -14.31021,14.55917 -1.61809,0.48329 -2.31605,0.5659 -5.31575,0.62928 -2.37431,0.0501 -3.87808,-0.0163 -4.81341,-0.2128 z m 2.57673,-17.10686 c -0.48214,-0.26802 -2.04586,-1.75809 -3.47619,-3.31244 -7.198831,-7.82306 -15.585271,-14.13515 -20.446949,-15.3895 -1.679481,-0.43331 -5.030515,-0.3271 -6.592272,0.20895 -4.853661,1.66596 -10.547013,5.92066 -18.20723,13.60645 -3.581975,3.59393 -4.554172,4.45696 -5.256243,4.66604 -1.725909,0.51397 -3.040208,0.20467 -4.151605,-0.97701 -0.520493,-0.55341 -0.630517,-0.8633 -0.696453,-1.9616 -0.111353,-1.85458 0.355487,-2.56088 3.755626,-5.68203 6.003999,-5.51137 11.508089,-12.1489 13.729747,-16.55708 1.180905,-2.343127 1.513264,-3.710001 1.513264,-6.223495 0,-3.744534 -0.811666,-5.975744 -3.77299,-10.371664 -2.451842,-3.639622 -4.781022,-6.3266 -9.993279,-11.528408 -2.675319,-2.669954 -4.825088,-4.988971 -4.989389,-5.3822 -0.696642,-1.667305 -0.199262,-3.488239 1.244677,-4.556777 0.725713,-0.537044 3.04881,-0.603308 3.95455,-0.112799 0.313428,0.169738 2.809074,2.524922 5.54588,5.233746 11.343165,11.227178 17.313477,14.484552 23.964707,13.075031 4.543878,-0.962931 10.567361,-5.274519 18.681342,-13.372035 2.647317,-2.641951 5.116397,-4.930183 5.486837,-5.084963 2.98821,-1.248554 5.76011,1.445118 4.87388,4.736329 -0.21789,0.809174 -0.89198,1.583584 -5.09871,5.857614 -7.612671,7.734444 -11.560415,13.02294 -13.12793,17.58651 -0.384729,1.120075 -0.467953,1.822293 -0.471251,3.976289 -0.0037,2.425332 0.04367,2.742513 0.650092,4.352105 1.793802,4.761157 7.53179,12.127167 14.702739,18.874297 1.50467,1.41574 2.87759,2.84835 3.05094,3.18355 0.4434,0.85747 0.59695,2.49062 0.31458,3.3462 -0.13143,0.39823 -0.56747,1.04245 -0.96898,1.43161 -0.64184,0.6221 -0.88783,0.71704 -2.03652,0.78602 -1.07218,0.0644 -1.46369,-0.009 -2.18287,-0.40874 z M 44.656784,85.993058 c -2.302295,-0.499775 -3.253647,-0.845637 -5.547748,-2.016884 -4.97328,-2.539094 -8.721698,-7.134896 -10.393524,-12.743125 -0.510716,-1.713236 -0.562335,-2.205125 -0.57102,-5.44124 -0.01131,-4.219712 0.331228,-5.832894 1.955303,-9.208254 1.215403,-2.525999 2.045237,-3.700932 4.040975,-5.721457 2.785723,-2.820329 6.210569,-4.753589 10.137857,-5.722628 2.722825,-0.671846 6.946962,-0.631674 9.693456,0.09218 6.095704,1.606567 10.885093,5.599397 13.61658,11.351901 1.532153,3.22671 1.965834,5.21379 1.96403,8.998975 -0.0013,2.56289 -0.06726,3.261011 -0.359709,3.802834 -1.157826,2.145077 -4.488924,2.31496 -5.678103,0.28958 -0.332546,-0.566383 -0.402491,-1.162471 -0.439246,-3.743346 -0.03762,-2.641607 -0.117218,-3.293439 -0.570778,-4.674153 -0.814422,-2.479245 -1.917889,-4.273624 -3.710776,-6.034201 -1.809328,-1.776723 -3.262285,-2.708433 -5.486851,-3.518443 -1.399073,-0.509432 -1.803642,-0.558917 -4.569513,-0.558917 -2.765868,0 -3.170435,0.04948 -4.56951,0.558917 -2.23163,0.812581 -3.673947,1.744242 -5.462244,3.528321 -1.838848,1.834509 -2.942265,3.604678 -3.711708,5.95456 -0.701657,2.142851 -0.798536,5.702318 -0.213595,7.847944 1.08842,3.992437 3.966782,7.552764 7.575482,9.370323 2.236415,1.126396 3.405419,1.371266 6.721591,1.407967 2.699857,0.02988 3.26592,0.09397 3.849776,0.43585 1.038216,0.607937 1.517982,1.391114 1.61839,2.641881 0.104518,1.301968 -0.422263,2.275628 -1.604865,2.966306 -1.070677,0.625311 -5.679778,0.700477 -8.28425,0.135105 z m 58.309766,0.202969 c -1.66803,-0.39382 -2.62399,-1.747354 -2.46229,-3.486326 0.11777,-1.266487 0.57261,-2.04913 1.47359,-2.535627 0.52501,-0.283485 1.1327,-0.339571 3.17918,-0.293431 2.96868,0.06693 4.94693,-0.279416 6.95009,-1.216807 3.73924,-1.749798 6.2342,-4.475157 7.69539,-8.406032 0.4764,-1.281588 0.58704,-1.970901 0.66774,-4.16039 0.11717,-3.178432 -0.15472,-4.465848 -1.5379,-7.282202 -1.6003,-3.25843 -4.4942,-5.807101 -8.07353,-7.110411 -1.39907,-0.509432 -1.80364,-0.558917 -4.56951,-0.558917 -2.76588,0 -3.17044,0.04948 -4.56952,0.558917 -2.224558,0.81001 -3.677522,1.74172 -5.486851,3.518443 -1.788656,1.756426 -2.889987,3.544709 -3.71621,6.034201 -0.459958,1.385902 -0.536814,2.006828 -0.564186,4.558228 -0.02711,2.526531 -0.09149,3.056152 -0.445123,3.661662 -1.272645,2.179068 -3.982172,2.187418 -5.444966,0.01678 -0.579582,-0.860041 -0.802679,-2.797739 -0.630007,-5.471904 0.313104,-4.849035 2.201522,-9.249779 5.467371,-12.741095 8.134869,-8.696479 21.870552,-8.936163 30.147352,-0.526061 3.61451,3.672725 5.64952,8.354425 5.8993,13.5718 0.23831,4.977894 -1.2144,9.554587 -4.3399,13.672615 -4.08136,5.377428 -10.24404,8.451143 -16.81126,8.384845 -1.16709,-0.01179 -2.44003,-0.09651 -2.82876,-0.188292 z"
       id="path826"
       inkscape:connector-curvature="0" />
    <path
       pprz="ac_color"
       style="fill:#ff0000;fill-rule:evenodd;stroke:#000000;stroke-width:0.26458332px;stroke-linecap:butt;stroke-linejoin:miter;stroke-opacity:1;fill-opacity:1"
       d="m 78.724159,31.506719 -12.7,18.388542 23.944792,-0.132292 z"
       id="path827"
       inkscape:connector-curvature="0" />
  </g>
</svg>
