<?xml version="1.0" encoding="UTF-8" standalone="no"?>
<!-- Created with Inkscape (http://www.inkscape.org/) -->

<svg
   xmlns:dc="http://purl.org/dc/elements/1.1/"
   xmlns:cc="http://creativecommons.org/ns#"
   xmlns:rdf="http://www.w3.org/1999/02/22-rdf-syntax-ns#"
   xmlns:svg="http://www.w3.org/2000/svg"
   xmlns="http://www.w3.org/2000/svg"
   xmlns:sodipodi="http://sodipodi.sourceforge.net/DTD/sodipodi-0.dtd"
   xmlns:inkscape="http://www.inkscape.org/namespaces/inkscape"
   version="1.1"
   id="svg2"
   width="546.1333"
   height="546.1333"
   viewBox="0 0 546.1333 546.1333"
   sodipodi:docname="chat.svg"
   inkscape:version="0.92.5 (2060ec1f9f, 2020-04-08)">
  <metadata
     id="metadata8">
    <rdf:RDF>
      <cc:Work
         rdf:about="">
        <dc:format>image/svg+xml</dc:format>
        <dc:type
           rdf:resource="http://purl.org/dc/dcmitype/StillImage" />
        <dc:title></dc:title>
      </cc:Work>
    </rdf:RDF>
  </metadata>
  <defs
     id="defs6" />
  <sodipodi:namedview
     pagecolor="#ffffff"
     bordercolor="#666666"
     borderopacity="1"
     objecttolerance="10"
     gridtolerance="10"
     guidetolerance="10"
     inkscape:pageopacity="0"
     inkscape:pageshadow="2"
     inkscape:window-width="1608"
     inkscape:window-height="986"
     id="namedview4"
     showgrid="false"
     inkscape:zoom="0.43212893"
     inkscape:cx="-79.274869"
     inkscape:cy="407.22659"
     inkscape:window-x="72"
     inkscape:window-y="27"
     inkscape:window-maximized="1"
     inkscape:current-layer="svg2" />
  <g
     id="g843">
    <path
       style="fill:#63b4f5;stroke-width:1.0666666"
       d="M 300.26665,527.90786 C 248.93368,522.6442 203.6887,504.01423 166.39681,472.78592 154.89243,463.15212 143.15357,450.2628 133.40682,436.56276 l -6.66105,-9.36279 60.62711,-0.605 c 63.97011,-0.63836 71.68003,-1.15739 96.31829,-6.48415 72.04923,-15.57696 135.48143,-60.23055 168.0889,-118.3275 14.44766,-25.74147 22.46808,-51.55458 25.24533,-81.25 0.69955,-7.48 1.58266,-13.6 1.96244,-13.6 1.59497,0 24.78405,23.99361 30.69995,31.76504 31.31285,41.13428 42.71386,88.91472 32.63461,136.76828 -5.54443,26.32344 -19.72039,54.20563 -38.67319,76.06487 -2.44709,2.82235 -4.44924,5.46685 -4.44924,5.87668 0,0.40981 9.63332,10.34061 21.40738,22.06845 11.77406,11.72783 22.38755,23.20906 23.58553,25.51385 4.18522,8.05185 0.47924,18.15319 -8.08739,22.04369 -4.17998,1.89831 -9.27253,1.98039 -115.83885,1.86714 -61.30666,-0.0652 -115.30666,-0.5122 -119.99999,-0.99346 z"
       id="path847"
       inkscape:connector-curvature="0"
       sodipodi:nodetypes="csscssscscssssccsc" />
    <path
       style="fill:#2095f2;stroke-width:1.0666666"
       d="M 12.969211,391.51099 C 8.4282306,390.38797 2.3907531,384.56911 1.1666653,380.13583 c -0.58129559,-2.10528 -0.52212893,-5.41226 0.1535202,-8.58065 1.0237933,-4.80097 2.6583723,-6.73101 23.7886785,-28.08853 l 22.689345,-22.93334 -5.261834,-5.86666 C 35.015589,306.28137 22.986516,288.01384 17.549714,276.72153 5.7404929,252.19362 0.73441084,230.30794 0.8551617,203.73601 0.95830148,181.03949 4.595731,162.8961 13.045027,142.93332 38.11422,83.703467 95.787704,38.858452 166.47224,23.633345 c 35.82546,-7.716633 74.96336,-7.716633 110.78883,0 69.5483,14.980368 126.9057,58.908555 152.28908,116.633315 9.43662,21.45995 13.27749,40.12798 13.27749,64.53333 0,44.76983 -16.24821,83.32109 -49.88981,118.37084 -34.03681,35.46151 -78.53178,57.32137 -135.17117,66.40799 -13.55263,2.17425 -17.92472,2.26101 -127.63333,2.53249 -62.480001,0.15462 -115.203853,-0.11553 -117.164119,-0.60032 z M 264.52901,253.7409 c 11.2201,-6.30605 11.2201,-23.30912 0,-29.61516 -3.98529,-2.23987 -4.64084,-2.25909 -77.04984,-2.25909 h -73.03036 l -3.59902,2.42539 c -1.97947,1.33395 -4.69045,4.04494 -6.02441,6.0244 -4.936921,7.32589 -2.02556,18.75338 5.95705,23.38221 3.84825,2.23147 4.55965,2.25256 76.80567,2.27683 72.32064,0.0243 72.95454,0.006 76.94091,-2.23458 z m 68.26666,-68.26666 c 8.10035,-4.55265 11.09524,-16.03021 6.11226,-23.42446 -1.33396,-1.97946 -4.04494,-4.69045 -6.02441,-6.0244 l -3.59903,-2.42539 H 221.86665 114.44881 l -3.59902,2.42539 c -1.97947,1.33395 -4.69045,4.04494 -6.02441,6.0244 -4.936921,7.32589 -2.02556,18.75338 5.95705,23.38221 3.88154,2.25077 3.95817,2.25234 110.939,2.27683 l 107.05475,0.0245 z"
       id="path845"
       inkscape:connector-curvature="0" />
  </g>
</svg>
