<?xml version="1.0" encoding="UTF-8"?>
<svg id="CHECKLIST" xmlns="http://www.w3.org/2000/svg" version="1.1" viewBox="0 0 800 800">
  <defs>
    <style>
      .cls-1 {
        fill: #333;
      }

      .cls-1, .cls-2, .cls-3, .cls-4 {
        stroke-width: 0px;
      }

      .cls-2 {
        fill: #6cbcd8;
      }

      .cls-3 {
        fill: #000;
      }

      .cls-4 {
        fill: #717172;
      }
    </style>
  </defs>
  <path class="cls-2" d="M655.7,771H144.3V152h52.9v47.2c0,7.7,6.3,14,14,14h377.7c7.7,0,14-6.3,14-14v-47.2h52.9v619.1Z"/>
  <g>
    <path class="cls-3" d="M669.6,124h-66.8v-37.9c0-7.7-6.3-14-14-14h-101C479.2,31.4,442.9,1,400,1s-79.2,30.3-87.8,71.2h-101c-7.7,0-14,6.3-14,14v37.9h-66.8c-7.7,0-14,6.3-14,14v647c0,7.7,6.3,14,14,14h539.3c7.7,0,14-6.3,14-14V138c0-7.7-6.3-14-14-14ZM225.1,100.1h99.2c7.4,0,13.5-5.7,13.9-13.1,2-32.5,29.1-58,61.7-58s59.7,25.5,61.7,58c.4,7.4,6.6,13.1,13.9,13.1h99.2v85.1H225.1v-85.1ZM655.7,771H144.3V152h52.9v47.2c0,7.7,6.3,14,14,14h377.7c7.7,0,14-6.3,14-14v-47.2h52.9v619.1Z"/>
    <path class="cls-1" d="M294.9,304l-57.5,57.5-25.7-25.7c-5.5-5.5-14.3-5.5-19.7,0-5.5,5.5-5.5,14.3,0,19.7l35.6,35.6c2.7,2.7,6.3,4.1,9.9,4.1s7.1-1.4,9.9-4.1l67.3-67.3c5.5-5.5,5.5-14.3,0-19.8-5.5-5.5-14.3-5.5-19.8,0Z"/>
    <path class="cls-1" d="M366.7,333.6c-7.7,0-14,6.3-14,14s6.3,14,14,14h231.4c7.7,0,14-6.3,14-14s-6.3-14-14-14h-231.4Z"/>
    <path class="cls-1" d="M294.9,462.2l-57.5,57.5-25.7-25.7c-5.5-5.5-14.3-5.5-19.7,0-5.5,5.5-5.5,14.3,0,19.8l35.6,35.6c2.7,2.7,6.3,4.1,9.9,4.1s7.1-1.4,9.9-4.1l67.3-67.3c5.5-5.5,5.5-14.3,0-19.8-5.5-5.5-14.3-5.5-19.8,0Z"/>
    <path class="cls-1" d="M598.1,491.8h-231.4c-7.7,0-14,6.3-14,14s6.3,14,14,14h231.4c7.7,0,14-6.3,14-14s-6.3-14-14-14Z"/>
    <path class="cls-1" d="M294.9,620.4l-57.5,57.5-25.7-25.7c-5.5-5.5-14.3-5.5-19.7,0-5.5,5.5-5.5,14.3,0,19.8l35.6,35.6c2.7,2.7,6.3,4.1,9.9,4.1s7.1-1.4,9.9-4.1l67.3-67.3c5.5-5.5,5.5-14.3,0-19.8-5.5-5.5-14.3-5.5-19.8,0Z"/>
    <path class="cls-1" d="M598.1,649.9h-231.4c-7.7,0-14,6.3-14,14s6.3,14,14,14h231.4c7.7,0,14-6.3,14-14s-6.3-14-14-14Z"/>
  </g>
  <path class="cls-4" d="M225.1,100.1h99.2c7.4,0,13.5-5.7,13.9-13.1,2-32.5,29.1-58,61.7-58s59.7,25.5,61.7,58c.4,7.4,6.6,13.1,13.9,13.1h99.2v85.1H225.1v-85.1Z"/>
</svg>