<?xml version="1.0" standalone="no"?>
<!DOCTYPE svg PUBLIC "-//W3C//DTD SVG 20010904//EN"
 "http://www.w3.org/TR/2001/REC-SVG-20010904/DTD/svg10.dtd">
<svg version="1.0" xmlns="http://www.w3.org/2000/svg"
 width="513.000000pt" height="529.000000pt" viewBox="0 0 513.000000 529.000000"
 preserveAspectRatio="xMidYMid meet">

<g transform="translate(0.000000,529.000000) scale(0.100000,-0.100000)"
fill="#000000" stroke="none">
<path d="M2426 5019 c-95 -10 -183 -38 -297 -94 -224 -110 -359 -247 -469
-476 -103 -216 -117 -479 -39 -755 80 -287 273 -672 528 -1054 93 -139 357
-494 390 -524 21 -19 21 -19 42 0 32 29 295 382 389 524 255 381 449 768 530
1058 109 385 34 745 -209 1004 -92 98 -167 156 -274 213 -184 97 -360 128
-591 104z m296 -578 c254 -98 368 -396 241 -634 -39 -73 -136 -167 -208 -203
-57 -28 -66 -29 -195 -29 -134 0 -136 0 -199 34 -36 18 -91 59 -123 92 -177
177 -179 456 -3 631 50 51 142 109 204 129 49 16 221 4 283 -20z"/>
<path d="M988 3493 c-45 -7 -74 -47 -96 -131 -54 -202 -165 -693 -158 -699 4
-5 236 -10 516 -11 l508 -4 11 64 c6 36 11 78 11 94 0 18 -48 125 -123 275
-68 134 -137 282 -154 329 l-31 85 -228 1 c-126 1 -241 -1 -256 -3z"/>
<path d="M3641 3478 c-56 -147 -102 -246 -194 -428 l-109 -215 5 -70 c3 -38 8
-77 12 -86 9 -23 138 -29 633 -29 l415 0 -7 40 c-6 40 -144 628 -165 707 -16
57 -39 82 -86 93 -22 5 -142 10 -268 10 -227 0 -228 0 -236 -22z"/>
<path d="M601 2123 c-30 -126 -72 -309 -95 -408 l-42 -180 550 -3 c302 -1 553
1 558 6 10 10 139 793 132 804 -3 4 -240 8 -528 8 l-523 0 -52 -227z"/>
<path d="M1950 1950 c-42 -263 -60 -404 -54 -410 7 -7 248 -9 675 -8 l665 3
-67 405 c-37 223 -68 406 -68 408 -1 1 -19 2 -41 2 -37 0 -43 -4 -88 -62 -174
-229 -404 -507 -415 -505 -12 3 -238 278 -353 430 l-105 137 -42 0 -43 0 -64
-400z"/>
<path d="M3410 2341 c0 -11 118 -746 126 -783 l6 -28 559 0 559 0 -5 23 c-3
12 -43 191 -90 397 -61 271 -89 378 -102 388 -13 9 -136 12 -535 12 -298 0
-518 -4 -518 -9z"/>
<path d="M484 1223 c-85 -3 -92 -5 -96 -26 -3 -12 -37 -157 -76 -322 -39 -165
-83 -358 -97 -430 -25 -121 -25 -132 -11 -162 l16 -33 575 0 c316 0 575 3 575
8 0 4 34 220 76 480 42 261 73 476 70 480 -7 7 -889 11 -1032 5z"/>
<path d="M1943 1223 l-112 -4 -5 -27 c-3 -15 -38 -220 -76 -457 -39 -237 -73
-442 -76 -457 l-6 -28 892 0 892 0 -6 25 c-3 13 -40 230 -81 481 -41 251 -78
460 -81 465 -5 8 -1066 9 -1341 2z"/>
<path d="M3686 1223 l-88 -4 6 -52 c4 -29 38 -245 77 -481 38 -236 69 -430 69
-432 0 -2 259 -4 575 -4 l574 0 16 30 c15 28 15 39 0 118 -12 66 -138 629
-180 810 l-5 22 -478 -2 c-262 -1 -517 -4 -566 -5z"/>
</g>
</svg>
