<?xml version="1.0" encoding="UTF-8" standalone="no"?>
<!-- Generator: Adobe Illustrator 16.0.0, SVG Export Plug-In . SVG Version: 6.00 Build 0)  -->

<svg
   xmlns:dc="http://purl.org/dc/elements/1.1/"
   xmlns:cc="http://creativecommons.org/ns#"
   xmlns:rdf="http://www.w3.org/1999/02/22-rdf-syntax-ns#"
   xmlns:svg="http://www.w3.org/2000/svg"
   xmlns="http://www.w3.org/2000/svg"
   xmlns:xlink="http://www.w3.org/1999/xlink"
   xmlns:sodipodi="http://sodipodi.sourceforge.net/DTD/sodipodi-0.dtd"
   xmlns:inkscape="http://www.inkscape.org/namespaces/inkscape"
   version="1.1"
   id="Capa_1"
   x="0px"
   y="0px"
   width="44.275px"
   height="44.275px"
   viewBox="0 0 44.275 44.275"
   style="enable-background:new 0 0 44.275 44.275;"
   xml:space="preserve"
   sodipodi:docname="gvf.svg"
   enable-background="new"
   inkscape:version="0.92.5 (2060ec1f9f, 2020-04-08)"><metadata
   id="metadata147"><rdf:RDF><cc:Work
       rdf:about=""><dc:format>image/svg+xml</dc:format><dc:type
         rdf:resource="http://purl.org/dc/dcmitype/StillImage" /></cc:Work></rdf:RDF></metadata><defs
   id="defs145"><linearGradient
     inkscape:collect="always"
     id="linearGradient966"><stop
       style="stop-color:#000000;stop-opacity:1;"
       offset="0"
       id="stop962" /><stop
       style="stop-color:#000000;stop-opacity:0;"
       offset="1"
       id="stop964" /></linearGradient><linearGradient
     inkscape:collect="always"
     xlink:href="#linearGradient966"
     id="linearGradient968"
     x1="7.9340048"
     y1="7.8214664"
     x2="7.6480947"
     y2="7.9644213"
     gradientUnits="userSpaceOnUse" /></defs><sodipodi:namedview
   pagecolor="#ffffff"
   bordercolor="#666666"
   borderopacity="1"
   objecttolerance="10"
   gridtolerance="10"
   guidetolerance="10"
   inkscape:pageopacity="0"
   inkscape:pageshadow="2"
   inkscape:window-width="1832"
   inkscape:window-height="906"
   id="namedview143"
   showgrid="false"
   inkscape:snap-text-baseline="true"
   showguides="true"
   inkscape:guide-bbox="true"
   inkscape:zoom="22.627417"
   inkscape:cx="13.564821"
   inkscape:cy="43.933928"
   inkscape:window-x="88"
   inkscape:window-y="27"
   inkscape:window-maximized="1"
   inkscape:current-layer="text972"><sodipodi:guide
     position="23.406249,30.95703"
     orientation="1,0"
     id="guide4784"
     inkscape:locked="false" /><sodipodi:guide
     position="24.49462,44.823939"
     orientation="1,0"
     id="guide5809"
     inkscape:locked="false" /><sodipodi:guide
     position="25.39453,28.367187"
     orientation="1,0"
     id="guide5811"
     inkscape:locked="false" /></sodipodi:namedview>
<g
   id="g110"
   transform="matrix(0,-0.43620259,0.9244026,0,1.5846877,43.947333)">
	<path
   d="m 36.637,33.041 c -1.717,0 -3.254,0.775 -4.285,1.992 l -17.233,-2.98 12.36,-6.751 c 0.9,0.615 1.988,0.976 3.158,0.976 3.098,0 5.617,-2.521 5.617,-5.619 0,-3.097 -2.521,-5.618 -5.617,-5.618 -0.516,0 -1.014,0.076 -1.487,0.206 L 21.55,7.854 C 21.849,7.168 22.017,6.413 22.017,5.618 22.017,2.52 19.496,0 16.398,0 13.3,0 10.779,2.52 10.779,5.617 c 0,3.097 2.521,5.618 5.618,5.618 0.446,0 0.879,-0.058 1.296,-0.157 l 7.725,7.513 c -0.256,0.641 -0.399,1.336 -0.399,2.067 0,0.095 0.01,0.188 0.015,0.281 L 10.538,28.856 C 9.69,28.342 8.7,28.041 7.638,28.041 c -3.098,0 -5.618,2.521 -5.618,5.618 0,3.097 2.521,5.617 5.618,5.617 1.996,0 3.748,-1.049 4.745,-2.623 l 18.78,3.248 c 0.567,2.5 2.805,4.375 5.475,4.375 3.099,0 5.619,-2.521 5.619,-5.617 -10e-4,-3.098 -2.524,-5.618 -5.62,-5.618 z M 33.254,20.659 c 0,1.445 -1.174,2.619 -2.617,2.619 -1.443,0 -2.618,-1.174 -2.618,-2.619 0,-1.444 1.175,-2.618 2.618,-2.618 1.443,0 2.617,1.174 2.617,2.618 z M 13.779,5.617 c 0,-1.444 1.175,-2.618 2.618,-2.618 1.443,0 2.618,1.174 2.618,2.618 0,1.444 -1.175,2.618 -2.618,2.618 -1.443,0 -2.618,-1.174 -2.618,-2.618 z m -6.143,30.66 c -1.443,0 -2.618,-1.174 -2.618,-2.619 0,-1.443 1.175,-2.617 2.618,-2.617 1.443,0 2.618,1.174 2.618,2.617 0,1.446 -1.174,2.619 -2.618,2.619 z m 29.001,5 c -1.443,0 -2.618,-1.174 -2.618,-2.619 0,-1.443 1.175,-2.617 2.618,-2.617 1.443,0 2.617,1.174 2.617,2.617 0,1.446 -1.174,2.619 -2.617,2.619 z"
   id="path108"
   inkscape:connector-curvature="0"
   style="fill:#00b100;fill-opacity:1;stroke:#000000;stroke-width:0.50025952;stroke-miterlimit:4;stroke-dasharray:none;stroke-opacity:1" />
</g>
<g
   id="g112"
   style="">
</g>
<g
   id="g114"
   style="">
</g>
<g
   id="g116"
   style="">
</g>
<g
   id="g118"
   style="">
</g>
<g
   id="g120"
   style="">
</g>
<g
   id="g122"
   style="">
</g>
<g
   id="g124"
   style="">
</g>
<g
   id="g126"
   style="">
</g>
<g
   id="g128"
   style="">
</g>
<g
   id="g130"
   style="">
</g>
<g
   id="g132"
   style="">
</g>
<g
   id="g134"
   style="">
</g>
<g
   id="g136"
   style="">
</g>
<g
   id="g138"
   style="">
</g>
<g
   id="g140"
   style="">
</g>
<text
   xml:space="preserve"
   style="font-style:normal;font-weight:normal;font-size:14.66666667px;line-height:1.25;font-family:sans-serif;letter-spacing:0px;word-spacing:0px;fill:url(#linearGradient968);fill-opacity:1;stroke:none;"
   x="8.0054827"
   y="15.969904"
   id="text960"><tspan
     sodipodi:role="line"
     id="tspan958"
     x="8.0054827"
     y="51.360527"
     style="fill-opacity:1;fill:url(#linearGradient968)" /></text>
<g
   aria-label="GVF"
   transform="matrix(1.0356293,0,0,0.96559648,5.7882618,-2.7876233)"
   style="font-style:normal;font-weight:normal;font-size:16.7840271px;line-height:1.25;font-family:sans-serif;letter-spacing:0px;word-spacing:0px;fill:#000000;fill-opacity:1;stroke:none;stroke-width:1.25880206"
   id="text972"><path
     d="M 6.7028165,19.597455 V 15.377784 H 3.2302689 v -1.746795 h 5.5771216 v 6.74516 q -1.2311751,0.873397 -2.7149006,1.32588 -1.4837237,0.44196 -3.1673833,0.44196 -3.68300435,0 -5.7665331,-2.146664 -2.073006,-2.157189 -2.073006,-5.998037 0,-3.851372 2.073006,-5.9980373 2.08352875,-2.15719 5.7665331,-2.15719 1.5363389,0 2.9148348,0.378826 1.3890186,0.378823 2.5570575,1.115424 v 2.262417 Q 7.2184376,8.6010557 5.8925552,8.0959577 4.5666733,7.5908597 3.1039947,7.5908597 q -2.88326585,0 -4.3354222,1.61 -1.441633,1.6099983 -1.441633,4.7984283 0,3.177906 1.441633,4.787906 1.45215635,1.609999 4.3354222,1.609999 1.1259473,0 2.0098686,-0.189411 0.8839213,-0.199936 1.5889532,-0.610327 z"
     style="font-size:13.4272213px;stroke-width:2.02039123"
     id="path4777"
     inkscape:connector-curvature="0" /><path
     style="font-size:13.4272213px;fill:#ff0000;fill-opacity:1;stroke:#000000;stroke-width:0.30000001;stroke-miterlimit:4;stroke-dasharray:none;stroke-opacity:1"
     d="M 17.009527,3.4923583 V 21.45835 l -3.919994,-6.947464 h -2.218747 l 7.192008,14.888341 7.20109,-14.888341 h -2.209668 l -4.127676,6.93123 V 3.4923583 Z"
     id="path4779"
     inkscape:connector-curvature="0"
     sodipodi:nodetypes="cccccccccc" /><path
     d="m 27.432872,6.1281807 h 9.028625 v 1.788888 h -6.903004 v 4.6300633 h 6.22954 v 1.788888 h -6.22954 v 7.502808 h -2.125621 z"
     style="font-size:13.4272213px;stroke-width:2.02039123"
     id="path4781"
     inkscape:connector-curvature="0" /><rect
     style="fill:#ff0000;fill-opacity:1;stroke:#000000;stroke-width:0.69999999;stroke-linecap:square;stroke-linejoin:miter;stroke-miterlimit:4;stroke-dasharray:none;stroke-opacity:1"
     id="rect4792"
     width="0"
     height="14.563537"
     x="17.13464"
     y="4.8060966" /></g></svg>