<?xml version="1.0" encoding="UTF-8" standalone="no"?>
<!-- Created with Inkscape (http://www.inkscape.org/) -->

<svg
   xmlns:dc="http://purl.org/dc/elements/1.1/"
   xmlns:cc="http://creativecommons.org/ns#"
   xmlns:rdf="http://www.w3.org/1999/02/22-rdf-syntax-ns#"
   xmlns:svg="http://www.w3.org/2000/svg"
   xmlns="http://www.w3.org/2000/svg"
   xmlns:sodipodi="http://sodipodi.sourceforge.net/DTD/sodipodi-0.dtd"
   xmlns:inkscape="http://www.inkscape.org/namespaces/inkscape"
   width="64"
   height="64"
   viewBox="0 0 16.933333 16.933333"
   version="1.1"
   id="svg8"
   inkscape:version="0.92.4 (5da689c313, 2019-01-14)"
   sodipodi:docname="map_layers_normal.svg">
  <defs
     id="defs2">
    <clipPath
       id="b">
      <path
         inkscape:connector-curvature="0"
         d="M 0,303.92 H 303.92 V 0 H 0 Z"
         id="path8" />
    </clipPath>
    <clipPath
       id="b-3">
      <path
         inkscape:connector-curvature="0"
         d="M 0,303.92 H 303.92 V 0 H 0 Z"
         id="path8-6" />
    </clipPath>
  </defs>
  <sodipodi:namedview
     id="base"
     pagecolor="#ffffff"
     bordercolor="#666666"
     borderopacity="1.0"
     inkscape:pageopacity="0.0"
     inkscape:pageshadow="2"
     inkscape:zoom="6.1328126"
     inkscape:cx="35.214739"
     inkscape:cy="-4.4263552"
     inkscape:document-units="mm"
     inkscape:current-layer="layer1"
     showgrid="false"
     units="px"
     inkscape:window-width="925"
     inkscape:window-height="1016"
     inkscape:window-x="995"
     inkscape:window-y="27"
     inkscape:window-maximized="0" />
  <metadata
     id="metadata5">
    <rdf:RDF>
      <cc:Work
         rdf:about="">
        <dc:format>image/svg+xml</dc:format>
        <dc:type
           rdf:resource="http://purl.org/dc/dcmitype/StillImage" />
        <dc:title />
      </cc:Work>
    </rdf:RDF>
  </metadata>
  <g
     inkscape:label="Calque 1"
     inkscape:groupmode="layer"
     id="layer1"
     transform="translate(0,-280.06665)">
    <rect
       style="fill:#3371cc;fill-opacity:1;stroke:none;stroke-width:1.05833328;stroke-linecap:round;stroke-linejoin:miter;stroke-miterlimit:4;stroke-dasharray:none;stroke-dashoffset:0;stroke-opacity:1"
       id="rect852"
       width="16.933332"
       height="16.933332"
       x="0"
       y="280.06665"
       ry="8.4666662" />
    <g
       style="fill:#ffffff"
       clip-path="url(#b-3)"
       transform="matrix(0.04352852,0,0,-0.04352852,1.8520621,295.14791)"
       id="g34">
      <path
         inkscape:connector-curvature="0"
         d="M 151.96,251.71 274.19,205.222 151.96,152.902 29.72,205.222 Z M 4.92,198.215 148.78,136.643 c 1.016,-0.443 2.1,-0.655 3.186,-0.655 1.086,0 2.165,0.223 3.184,0.655 l 143.86,61.572 c 3.036,1.303 4.982,4.31 4.913,7.615 -0.067,3.306 -2.136,6.233 -5.22,7.403 l -143.86,54.716 c -1.86,0.708 -3.906,0.708 -5.76,0 L 5.233,213.236 c -3.085,-1.17 -5.152,-4.103 -5.224,-7.403 -0.07,-3.3 1.88,-6.318 4.92,-7.616"
         id="path26" />
      <path
         inkscape:connector-curvature="0"
         d="m 4.922,163.18 147.04,-62.936 147.03,62.936 c 4.118,1.76 6.023,6.523 4.262,10.634 -1.757,4.103 -6.502,6.03 -10.63,4.26 l -140.66,-60.21 -140.67,60.21 c -4.12,1.765 -8.876,-0.152 -10.638,-4.26 -1.76,-4.116 0.152,-8.873 4.267,-10.634"
         id="path28" />
      <path
         inkscape:connector-curvature="0"
         d="m 4.922,130.78 147.04,-62.938 147.03,62.938 c 4.118,1.76 6.023,6.518 4.262,10.63 -1.757,4.103 -6.502,6.034 -10.63,4.262 L 151.963,85.46 11.293,145.67 c -4.12,1.762 -8.876,-0.152 -10.638,-4.26 -1.76,-4.113 0.152,-8.87 4.267,-10.63"
         id="path30" />
      <path
         inkscape:connector-curvature="0"
         d="m 4.922,98.38 147.04,-62.94 147.03,62.94 c 4.118,1.762 6.023,6.518 4.262,10.63 -1.757,4.104 -6.502,6.022 -10.63,4.263 L 151.963,53.06 11.293,113.273 c -4.12,1.76 -8.876,-0.154 -10.638,-4.262 -1.76,-4.112 0.152,-8.868 4.267,-10.63"
         id="path32" />
    </g>
  </g>
</svg>
