<?xml version="1.0" encoding="UTF-8" standalone="no"?>
<!-- Created with Inkscape (http://www.inkscape.org/) -->

<svg
   xmlns:dc="http://purl.org/dc/elements/1.1/"
   xmlns:cc="http://creativecommons.org/ns#"
   xmlns:rdf="http://www.w3.org/1999/02/22-rdf-syntax-ns#"
   xmlns:svg="http://www.w3.org/2000/svg"
   xmlns="http://www.w3.org/2000/svg"
   xmlns:sodipodi="http://sodipodi.sourceforge.net/DTD/sodipodi-0.dtd"
   xmlns:inkscape="http://www.inkscape.org/namespaces/inkscape"
   width="33.866665mm"
   height="33.866638mm"
   viewBox="0 0 33.866665 33.866638"
   version="1.1"
   id="svg8"
   inkscape:version="0.92.5 (2060ec1f9f, 2020-04-08)"
   sodipodi:docname="plotter.svg">
  <defs
     id="defs2" />
  <sodipodi:namedview
     id="base"
     pagecolor="#ffffff"
     bordercolor="#666666"
     borderopacity="1.0"
     inkscape:pageopacity="0.0"
     inkscape:pageshadow="2"
     inkscape:zoom="1.979899"
     inkscape:cx="136.62125"
     inkscape:cy="14.259238"
     inkscape:document-units="mm"
     inkscape:current-layer="g844"
     showgrid="false"
     fit-margin-top="0"
     fit-margin-left="0"
     fit-margin-right="0"
     fit-margin-bottom="0"
     inkscape:window-width="1680"
     inkscape:window-height="1013"
     inkscape:window-x="1680"
     inkscape:window-y="0"
     inkscape:window-maximized="1" />
  <metadata
     id="metadata5">
    <rdf:RDF>
      <cc:Work
         rdf:about="">
        <dc:format>image/svg+xml</dc:format>
        <dc:type
           rdf:resource="http://purl.org/dc/dcmitype/StillImage" />
        <dc:title></dc:title>
      </cc:Work>
    </rdf:RDF>
  </metadata>
  <g
     inkscape:label="Calque 1"
     inkscape:groupmode="layer"
     id="layer1"
     transform="translate(-63.598615,-161.87333)">
    <g
       id="g844"
       transform="translate(0.80180905,44.366742)">
      <path
         style="fill:#5da3c0;stroke-width:0.21840362"
         d="m 76.996534,150.02403 c -3.398639,-0.64129 -5.911011,-1.97996 -8.404355,-4.47811 -1.401818,-1.40452 -2.090439,-2.30912 -2.787484,-3.66175 -0.912737,-1.77118 -1.89077,-4.93709 -1.688504,-5.46572 0.07402,-0.19347 0.965971,-0.28873 3.1101,-0.33217 l 3.006308,-0.0609 0.475633,-1.19738 c 0.261598,-0.65857 0.575786,-1.23087 0.698197,-1.2718 0.12241,-0.0409 0.335388,0.35027 0.473284,0.86931 1.27738,4.80805 2.444706,8.63744 2.715883,8.90941 0.686046,0.68804 0.91879,-0.17397 2.298404,-8.5125 0.746365,-4.51112 1.4289,-8.39725 1.516743,-8.63587 0.159276,-0.43265 0.160081,-0.43265 0.29203,0 0.07277,0.23862 0.829421,4.96136 1.681443,10.495 0.852023,5.53362 1.63013,10.14419 1.729126,10.2457 0.099,0.1015 0.362163,0.1496 0.584813,0.10688 0.343929,-0.066 0.586803,-0.94905 1.61477,-5.87128 0.665474,-3.18649 1.265183,-5.94126 1.33268,-6.12171 0.08124,-0.21719 0.299512,0.0406 0.645795,0.76292 0.579278,1.20824 1.086543,1.45129 1.757223,0.84198 0.356706,-0.32407 0.786617,-0.39905 2.219166,-0.38706 0.977214,0.008 2.173384,0.0923 2.658152,0.18672 1.114353,0.21727 1.602488,-0.22096 1.274549,-1.14423 -0.17983,-0.5063 -0.314411,-0.57927 -0.964388,-0.52297 -3.231494,0.27995 -5.720381,0.34506 -5.859008,0.15329 -0.08695,-0.1203 -0.430438,-0.9323 -0.7633,-1.80445 -0.464144,-1.21616 -0.70395,-1.58572 -1.028936,-1.58572 -0.233062,0 -0.490075,0.17223 -0.571147,0.38275 -0.08106,0.21052 -0.593221,2.52877 -1.138113,5.15166 -0.544893,2.62289 -1.088852,4.78823 -1.2088,4.81185 -0.125477,0.0247 -0.91266,-4.45206 -1.85374,-10.54237 -1.330317,-8.60932 -1.705778,-10.62948 -2.011302,-10.82176 -0.244656,-0.15398 -0.449836,-0.16186 -0.588391,-0.0226 -0.117008,0.11759 -0.912247,4.34687 -1.767199,9.39839 -0.854951,5.05152 -1.596102,9.22635 -1.647001,9.2774 -0.203846,0.20444 -0.386022,-0.31708 -1.490683,-4.26738 -1.51752,-5.42671 -1.828916,-5.62953 -3.164984,-2.0614 -0.381687,1.01935 -0.811474,1.92826 -0.955081,2.01983 -0.143607,0.0916 -1.358556,0.16797 -2.699886,0.16981 -2.870268,0.004 -2.814536,0.0587 -2.468411,-2.42344 0.457117,-3.27803 1.513675,-5.78817 3.452032,-8.20121 5.675602,-7.06549 16.29709,-7.84974 22.927801,-1.69288 2.854595,2.65059 4.567599,6.02781 5.062857,9.98151 0.212472,1.69621 0.19552,2.34493 -0.108213,4.1411 -0.628227,3.71506 -2.044717,6.42375 -4.679309,8.94801 -2.544191,2.43764 -4.895029,3.64385 -8.24274,4.22933 -2.240526,0.39186 -3.375405,0.39266 -5.436014,0.004 z"
         id="path846"
         inkscape:connector-curvature="0" />
    </g>
  </g>
</svg>
